
<global>
amp_veltrack=0
ampeg_release=0.45
</global>

<group>
group_label=RR1_64-127
lpc_hicc1=127
lpc_locc1=64
seq_length=4
seq_position=1

<region>
hivel=127
key=G5
lovel=1
lpc=r/UIQvaenMJH+MxCzLGxwmraXEK30p3B6dHIQObB8cA/WpBBLGg2wQCDBcDOXGZB8gl+wdUIQkFtYu6/sB++P7xt/77HGtNAC3g1wZ1Xb0GVlnXBpC6mQeTIh8HUVS5B
lpc_rms=-22.74
sample=Soprano_staccato_MF_G4_RR1.opus
tune=+7
</region>

<region>
hivel=127
key=G4
lovel=1
lpc=Y2mgQQFfXML+J5lCgOSjwlVXjkIUOVnCo+41QpkmLsLMpChCq+YSwks54EEa4IPBy18nQM+gqEBStre/l4pkwH/61EB5peHAT9d2QIlflb9VzsG+us0cPxP0EsBpLQtA
lpc_rms=-24.61
offset=514
sample=Soprano_staccato_MF_G3_RR1.opus
tune=-9
</region>

<region>
hivel=127
key=G#5
lovel=1
lpc=7M64QfViOcKvEndCjjluwmHwQUL6i+PBXiKsQdS5eMF8S19Bgokqwb7gIUEBTzS/kdyav0LVOkDzs60//1JBwOhzpUD5KohAC8H+wF/CUkE+xmrBdk12Qc012MC1aKtA
lpc_rms=-30.61
offset=587
sample=Soprano_staccato_MF_G#4_RR1.opus
tune=+10
</region>

<region>
hivel=127
key=G#4
lovel=1
lpc=tL6/Qa0eesKZeZxCKD6JwhmVOkJrWAnCOqkpQmPiXMLaDU5CMRz/wXw9iEGPYj/B1bsdQRHzC8HW6b5AayMnQPvWGcEzlEtBKWVfwUW4FkFvTbnAoU/TQOTdtMCiWidA
lpc_rms=-25.37
offset=142
sample=Soprano_staccato_MF_G#3_RR1.opus
tune=-15
</region>

<region>
hivel=127
key=G#3
lovel=1
lpc=wvfEQe+0icJtALVC33OvwgazjUKrBUnC4SYtQuZLOsIWNj1Ch9YZwtZqw0FJ/C7B1hGAwCAgWUHt03TBhBCQQXu5msHjvZxBPrWdwZGZgEHQACHBEySaQI6hb8AaBhtA
lpc_rms=-20.35
sample=Soprano_staccato_MF_G#2_RR1.opus
tune=-14
</region>

<region>
hivel=127
key=F5
lovel=1
lpc=y9cXQkgB08JIJRBDc5L4wnK1lEIBKwLCvHOsQYnI08GqL99BVX6bweU3UUGZ1xfB8MgDQZH3WMBTcZLAtKM5QavJPsHT6ZdBVVT5wQlUG0IpYRfCrTcGQh1JscEd4xVB
lpc_rms=-21.99
offset=126
sample=Soprano_staccato_MF_F4_RR1.opus
tune=-19
</region>

<region>
hivel=127
key=F4
lovel=1
lpc=4U7FQUYvi8KKErtC/7aowkKDUEKpCs/BjMG3Qb5BBsJevCFC3q3/wVsSa0HwXKE/tEoWwW77FUHZL8jA5/ZyQMKIuL6+gAS//D+/v6NGhT/GvJu/IMImQK1jUMDDifo/
lpc_rms=-26.73
offset=1793
sample=Soprano_staccato_MF_F3_RR1.opus
tune=-6
</region>

<region>
hivel=127
key=F#5
lovel=1
lpc=aZohQr+QtsK3AdRCT9+dwlbIH0KaiBPB3aZlQWHt5sH+XxlCstgVwjArv0ExNZBA+lGawSUAtkHRrCHBzSyQwL4TE0FNCRK9iCa9wK0yikEXPLDBsWXYQVNd5sFDvZdB
lpc_rms=-23.26
offset=95
sample=Soprano_staccato_MF_F#4_RR1.opus
tune=-12
</region>

<region>
hivel=127
key=F#4
lovel=1
lpc=PAPdQftwhsIx6olC7tg2wkDQqkEFRmDBnafMQeno8cFhYplBWgz4vzHJuMD1V/I/iS+vP7mKsb68Mno/i6vYwFq7Q0HXr9fA0NThP0OML8BnbpBA75E3wXoLHUGB/Lq/
lpc_rms=-28.18
offset=1351
sample=Soprano_staccato_MF_F#3_RR1.opus
tune=-12
</region>

<region>
hivel=127
key=E5
lovel=1
lpc=a0ELQoSmvsKYcftCCG3Ywh4gj0IyZDPCzjAxQgBMTcJ/KC1CJWnjwSuiuEGUqLrBCpu/QYMqWMEaK/c9qtB1QAiXhz60vtrAlUJbQdwWQ8GCRihATsICQSFWGsHlo6RA
lpc_rms=-19.74
offset=334
sample=Soprano_staccato_MF_E4_RR1.opus
tune=+9
</region>

<region>
hivel=127
key=E4
lovel=1
lpc=9I4AQr56n8IsyrRCEqCawqTnfkIkWGrC4DlwQgxnVMJEEhlCvO3twaABtkFLfC/BfLYkQCejqz5khiO+MZ6fPyu9wcBfZQtBpoNxv4aHa8CwCjXA0RYWQaA0R8E7L+BA
lpc_rms=-26.09
offset=1473
sample=Soprano_staccato_MF_E3_RR1.opus
tune=-5
</region>

<region>
hivel=127
key=D6
lovel=1
lpc=ZgFtQRgVCMIUEiVCp5oSwq0izEHVyorBrrmZQZAC2sFM7gRC06juwa2/mUHJkePAaN/2PzILyL9eZ21AmaEhwD8cIL92jERAZL6ewJfzq0CPJ7jAfinAQBkeusDfMntA
lpc_rms=-28.19
offset=1378
sample=Soprano_staccato_MF_D5_RR1.opus
tune=-14
</region>

<region>
hivel=127
key=D5
lovel=1
lpc=mt01QiQkAsOWYyVD/+YBw3qSl0J90jnCTglJQj0KMMK2SPRAVK75QU6dQsLT1i9CVtYIwvAHBkLvjOTBRkN1Qe2p1sDH0fRAch6FwBKAEMHWJodBo/f+wNqScMCaUpZA
lpc_rms=-20.37
offset=335
sample=Soprano_staccato_MF_D4_RR1.opus
tune=-10
</region>

<region>
hivel=127
key=D4
lovel=1
lpc=OucdQmrcz8LJZu9CwBjKwm6lmkI1XoPCp1uPQoXaicLeGnhC2FJOwrVjDkLR26/BOuo/Qa2fPMEhaXJBiJNtwSk6QUHPgQnBzfQuQccuE8GmMY6/l9uSQPqwQcAB+dI/
lpc_rms=-24.23
offset=1688
sample=Soprano_staccato_MF_D3_RR1.opus
tune=+11
</region>

<region>
hikey=F6
hivel=127
lokey=D#6
lovel=1
lpc=pOCVQdBgG8IVfSZCUsDbwXTWVkGS5xzBipRsQexRpcFMBqdBFPszwStU+T/1gjNALcpbPUk75r/APZU/wqI+QBWrWcDrJyZA1LAfwA4l2MC86WVB09Ahwa6s8z9xexZA
lpc_rms=-25.06
pitch_keycenter=D#6
sample=Soprano_staccato_MF_D#5_RR1.opus
tune=-14
</region>

<region>
hivel=127
key=D#5
lovel=1
lpc=KzH5QZkmucISYAdD4HIMwzGk6EI9YJ7CdfNhQvfcMcKYTBRC9Y0Uwq0n+kGTLFzBGM2awDtilEHo9nHB7f4AP3GyyEDwKV3AlCkLwOH4I0Hr417BqyZ1QRfgbMHP6O5A
lpc_rms=-22.55
offset=457
sample=Soprano_staccato_MF_D#4_RR1.opus
tune=-7
</region>

<region>
hivel=127
key=D#4
lovel=1
lpc=O9AHQkt/qsLMF7lC6CeZwvFFfkJiJVvCoiBfQs3BWcLf8ylCBazMwbw1SEEdE23AsQcIPhCxlcBi7jdBB1BRwacz0kCzVWNAz00ZwG2HecCTdZVAaAaOwJVfqb8MC2ZA
lpc_rms=-25.39
offset=1924
sample=Soprano_staccato_MF_D#3_RR1.opus
tune=+2
</region>

<region>
hivel=127
key=C6
lovel=1
lpc=4tx7Qd1kvsGTw6RBEcyIwZRxaEF0CFTBAaRaQWnrMMEMvxRBAV+xwNi8BkBwxB6/1MoGP/oRsb4Bid0+1F5gQFllw8CuzA5Bj40vwXr0OkF4QUbBhvhxQXSBj8FOQfVA
lpc_rms=-37.12
offset=1438
sample=Soprano_staccato_MF_C5_RR1.opus
tune=-7
</region>

<region>
hivel=127
key=C5
lovel=1
lpc=UYE3QmJz5MJFnAdDGhP0wj3Ur0IMOEDCYcIsQq8BXsKEHj9CByDmwSk4zUBU4HxBDfdNwRBoAECIR4i/YMqDP3JbeMABIDtBwinVwPD8isD9+wVBQVY4wQ2tgkADModA
lpc_rms=-19.61
offset=63
sample=Soprano_staccato_MF_C4_RR1.opus
tune=-23
</region>

<region>
hikey=C4
hivel=127
lokey=C4
lovel=1
lpc=ENDmQa2frcJjMepCx0DKwqrbg0LzlxrCAwwFQuaRG8KZYxhCq6Lpweu+pkE3fnDB84YTQTqns8AZwx9BgduLwYt1nkGrTXXBcJYDQcJ5p8Da081Ar3zUwFHOYkBWKCi/
lpc_rms=-26.44
offset=595
sample=Soprano_staccato_MF_C3_RR1.opus
tune=-8
</region>

<region>
hivel=127
key=C#6
lovel=1
lpc=wYzVQVeXeMKEwI9CYmxHws2B10HKx67BAr8DQt1zEMJaqvNB2BqwwV/ok0GKfyzBKQpkQP+Y27/rhjdBwYqmwQIcyEHLmojBoyTvQN0Klr9HG9W+l2SGwLr/okBgE5C/
lpc_rms=-25.24
offset=4
sample=Soprano_staccato_MF_C#5_RR1.opus
tune=-1
</region>

<region>
hivel=127
key=C#5
lovel=1
lpc=J13JQT5rh8Jg37JCJ3mvwg0jk0Khgm7CJRxSQsbeJsKVQexB+fimwZyQiEFLqlrBLuS5QLbby798zwRBkyOAwXVeqkErUcnBw6nTQdFzscGsjDpB26nsv6wYP8D63kFA
lpc_rms=-22.36
offset=214
sample=Soprano_staccato_MF_C#4_RR1.opus
tune=-13
</region>

<region>
hivel=127
key=C#4
lovel=1
lpc=yePUQQKmkcLKtb1C94aywp5PfkKOhhDCTM7KQUlT18H3avRB403RwWf6Z0FV0irAIoq6wFHhOEFSJD/BDIkZQU9ELMFeojNBd+r/wNgT8UAHACfBSswrQQDYAMHi3VNA
lpc_rms=-23.92
offset=2996
sample=Soprano_staccato_MF_C#3_RR1.opus
tune=+4
</region>

<region>
hivel=127
key=B5
lovel=1
lpc=fGecQbJZxMElRq9BqhNowRI5PUFacl/Bo96nQQjGx8Gnj81BoDuuwYWKmUHGmonB3UyQQWjbjcFpd5RBsFKWweLCqkH7ra7BuTCiQaNOXsFaAwtBboDMwCf8JEFCPkvB
lpc_rms=-34.81
offset=1461
sample=Soprano_staccato_MF_B4_RR1.opus
tune=+12
</region>

<region>
hivel=127
key=B4
lovel=1
lpc=4g8lQcSRucGbecBB4+SQwWQQTkHIeTHBwG9YQbQUiMFIaJBBBwBowU7n/kD9n4PApZaDQFQUj8A0IpdAxoOMwNd4VUC8z+6/8jbNP7DyKMDqW2BAh5QRwNH+sz0rkUI/
lpc_rms=-33.22
offset=738
sample=Soprano_staccato_MF_B3_RR1.opus
tune=+1
</region>

<region>
hivel=127
key=B3
lovel=1
lpc=fsq5QeOsjMIjTcFC+nCtwl2KbkKpExDC837qQQ8AAsJjLgZCJrgBwjZv70GDqrTBVR08Qca8SsD7BCNA7PSYwDh5mT/cBoBApfevwJJ9l0DSUYvASp6NQOWqTcDiM6E/
lpc_rms=-24.45
offset=1
sample=Soprano_staccato_MF_B2_RR1.opus
tune=+9
</region>

<region>
hivel=127
key=A5
lovel=1
lpc=lKr7QY1pYcLDjYZCENwpwuxtvUFSPSzBE0fOQfsMBsItIxxCGRu3wZPOikF78B7BZfiPQWsUYcFwLEZBZsKFQJ5cBMHCw3xBV/XewL6V+UB+vYnAbYx4QbvYWcGXmV5B
lpc_rms=-22.89
offset=247
sample=Soprano_staccato_MF_A4_RR1.opus
tune=+5
</region>

<region>
hivel=127
key=A4
lovel=1
lpc=jvFVQaliAcLFRBFCPs34wUDFskH/uHjBpRJaQRn8N8HnJxpBVPOYwAz4qT+IpYa/PkjCvz6fLUAOKuY9+8I/wB6pFkCpSO8+wN8nwE6jK0CUyDS/cPXNPt6VjL8CMR0/
lpc_rms=-28.05
offset=195
sample=Soprano_staccato_MF_A3_RR1.opus
tune=-15
</region>

<region>
hivel=127
key=A3
lovel=1
lpc=xpmwQaywfcL5Lq5CnVKrwiNlhUJ92yTCKbPJQWICncEfdYtBMN4XwW7Erb+6ptJAARkPwfOMK0H4jMXAnh3Jv+efDkErFWnBJupjQX7EM8H1vQ9BZy/MwNrAeEBHV5y/
lpc_rms=-21.61
sample=Soprano_staccato_MF_A2_RR1.opus
tune=-12
</region>

<region>
hivel=127
key=A#5
lovel=1
lpc=weNBQph7qcL5B5xCNg4qwiRg5EEplgjCNPozQuXxB8IXl69BS4qLwXe6w0Ftw6DB7BVUQaBear+BNN/ABOCMQdXHTsFjPDZAvJyGQGs84UB35fPAPVTXwM+e5EEBhLHB
lpc_rms=-26.92
offset=890
sample=Soprano_staccato_MF_A#4_RR1.opus
tune=+5
</region>

<region>
hivel=127
key=A#4
lovel=1
lpc=F3YVQc/wxMFFqwRChwcEwio82EFDZ6LBPwyBQZD2XsEcy1VBCERFwXi3IUHwDRvBuu4IQXWIp8DRnS1AUbOFv2xhUT/hPjC/7S5/P7XWJ8A780lAJ9r+v0rhqT8TBA2/
lpc_rms=-34.85
offset=1285
sample=Soprano_staccato_MF_A#3_RR1.opus
tune=-19
</region>

<region>
hivel=127
key=A#3
lovel=1
lpc=Zf5WQV3SEsL6/01C+aBnwkPHZEKOYkvC2aU3QrLNKMJaUBRCGwnrwW4LqUGl223B8VgBQbOlnr/gs9Y/+I28wESXGkHRK0XBtAEpQZY95cCP+qBA6hRdwMQiGkBO/2m/
lpc_rms=-23.11
sample=Soprano_staccato_MF_A#2_RR1.opus
tune=-23
</region>
</group>

<group>
group_label=RR1_0-63
lpc_hicc1=63
lpc_locc1=0
seq_length=4
seq_position=1

<region>
hivel=127
key=G5
lovel=1
lpc=Mj2rQtmEJMPxL/tCBER5wkDmrEFbKjLBAb0nQiefVsLBGSBCBA6QwfYnMMB2GoRB/RzMwJ8iUsG5HoRBXr1qwUGCz0CC4wpA4uy5QO77LsDFOVtAUlF8wQy13UHmyZXB
lpc_rms=-29.64
offset=655
sample=Soprano_staccato_PP_G4_RR1.opus
tune=-3
</region>

<region>
hivel=127
key=G4
lovel=1
lpc=9S6TQvOdDMNcuYdCr8QWwkaQa0Lp2b3BH8vcQf41BcK594VBMm7YwIO1+8AJOyZB0ckGwc6el77tFuc/HHwlQI4L98AvOjVBTA4VwK07UUHiQ4bBZ3Y1QJTP98ARGv1A
lpc_rms=-34.05
offset=6326
sample=Soprano_staccato_PP_G3_RR1.opus
tune=-10
</region>

<region>
hivel=127
key=G#5
lovel=1
lpc=KEqAQT3KqMFBqQ5BjPf6wKk070DPZCTAvk54QPnVbMA0eiRAhT6Ov7RZVb8jgDBAqDkJwLMTGz8liHS+ibANv7wNyz9UQKi/iAO+PzghH78S/QdA5xyfv9USEj9bHwHA
lpc_rms=-47.92
offset=4543
sample=Soprano_staccato_PP_G#4_RR1.opus
tune=-13
</region>

<region>
hivel=127
key=G#4
lovel=1
lpc=g0rPQX/gSsL7QgJCbA6rwYcutUE2JCXBSggfQc/eQsE9g5JAsS2qvxlFGTuZiWJAQGTBwI03hUDZpXw/kBgBwLb5B0AmTJrANY8QQFOn4j445QRAhPzwPlx+k8BoWDRA
lpc_rms=-39.85
offset=7013
sample=Soprano_staccato_PP_G#3_RR1.opus
tune=-11
</region>

<region>
hivel=127
key=G#3
lovel=1
lpc=lE9HQpW5kMLIMPVBIYoSwjFJy0EWxMLAM/JFQa2qHD5yxcTAUZvUQAPUCcGXciZBL+nNwPazgkCoPoHAEfiUQHYEq8C44gZAkZK5PwC0Mz+LtRnAivMMvmGhk8CEqpZA
lpc_rms=-29.88
sample=Soprano_staccato_PP_G#2_RR1.opus
tune=+1
</region>

<region>
hivel=127
key=F5
lovel=1
lpc=OMCJQoDkxcJDKz5CoafYwZzGh0HuK3fBhcRUQgobGML290RBcfbfv8QcG8CRKOjAuzMDQUxfIcCaGh9B70ZhwOzK20DKZ8rArmFCQLQNs8DX0gJBpvyzwOeczEAeYU9A
lpc_rms=-32.78
offset=2814
sample=Soprano_staccato_PP_F4_RR1.opus
tune=-1
</region>

<region>
hivel=127
key=F4
lovel=1
lpc=NwyEQmKfDcMzLLtC3EYUwiTVGEIoWLzBlTytQXrHCcLS8qNBiMyJv3v4Ab9+L+lA135nwfvNYL88hD5BWJ9vv6edh72LauLAUm8SvzYfer9icslA9KfvQGlSe8Gv2ehA
lpc_rms=-31.14
offset=2238
sample=Soprano_staccato_PP_F3_RR1.opus
tune=-40
</region>

<region>
hivel=127
key=F#5
lovel=1
lpc=csJgQjxO0MIEL5dCv7oLwsPTGEIP6LLBc84AQVLVhcGhNGNBONwDQU+ThcC2M90/yoogwZgXFkGJacBAhmizPuSPyMBTRLc/7UpjQDb+00A3doTAt5W6QLhCf8F6B4lB
lpc_rms=-33.97
offset=1405
sample=Soprano_staccato_PP_F#4_RR1.opus
tune=-4
</region>

<region>
hivel=127
key=F#4
lovel=1
lpc=qtPEQnoaXsNk+B9DRJadwp+HuEJwXlXCEagMQhMGicJ8BP5BvxT9QJMBB0G6P6nAg5iuwFh9M0D53VXBM7thQXMODr9qYtE/emiVwH26oMBltxRBLgvIPUNnI8H4x/BA
lpc_rms=-27.03
offset=3825
sample=Soprano_staccato_PP_F#3_RR1.opus
tune=-18
</region>

<region>
hivel=127
key=E5
lovel=1
lpc=9/OZQmGdJMPAmgxDcjuJwo6IKkKuokLCQxOEQtrDcMJmTaZBZGjUQFZ5SkA2xBzAUUYyP7558cD3pV9BCX+NwSB/pkE7cYXBw+JvQSDnjcEsaI5Bnrb7wG8jjz6COq9A
lpc_rms=-28.02
offset=1704
sample=Soprano_staccato_PP_E4_RR1.opus
tune=+3
</region>

<region>
hivel=127
key=E4
lovel=1
lpc=niSPQqL1EsMj161CxagXwvSdhEIGrmnCKpIaQvRMCMLXOdBBtlmewUxx0kDdKtdAu6jwwGXXbb+NqRRBSbDdwI59SUDnY5bAp/IQQddHBMEBXw/AtDiiQNnOU8DXx09A
lpc_rms=-28.70
offset=2740
sample=Soprano_staccato_PP_E3_RR1.opus
tune=+20
</region>

<region>
hivel=127
key=D6
lovel=1
lpc=/J4IQm0YgsIyY3lC7mI1wtURpkEZHQPB7cJ+QW00vsHMJ9RB5xmHwRsZl76sujhBStYqwXyFG0H9wUvA80tQQIIkgsBRq2lAgV/PwOuaZz/bKaJApNiXwErlZ7+nXcdA
lpc_rms=-29.42
offset=911
sample=Soprano_staccato_PP_D5_RR1.opus
tune=-7
</region>

<region>
hivel=127
key=D5
lovel=1
lpc=NnMnQnjzocKz0UJCXuu7wRglWkGqQMlAM6vyQNVvhsGqKyBATKAQP7xg2j9eeOhAh+GOwJh5esCstl3AlOnuv02tvkAeQ0k+pFi8QFlbu8DxWaJAVRTTwDr/xj+1mYo/
lpc_rms=-39.32
offset=3968
sample=Soprano_staccato_PP_D4_RR1.opus
tune=-7
</region>

<region>
hivel=127
key=D4
lovel=1
lpc=bccRQolrkcIsg19CglQVwlurUkFXPg0/4CtVQWhKkMG/3qJBmSkiwfKuBcCpO21AFSuHwHhQL8BxXUJBXr9nwR5kBkFiWLS/XNoEu8IEh7+j6/0/t4uLwGUYMkDfbb0+
lpc_rms=-33.30
offset=5117
sample=Soprano_staccato_PP_D3_RR1.opus
tune=+6
</region>

<region>
hikey=F6
hivel=127
lokey=D#6
lovel=1
lpc=sOZ1QdDQ8sFKgeNBRcSawXuOTUHRuVHBkS6LQWTQecGWcvJAY6qWvxVOEz7ZNbg/bjrOvy9a+D9R+pa+Bo6QP8tndMCvUFJACrnFv6ObRL/hm5o/Z2snPU5U1j7d2Xk/
lpc_rms=-31.72
offset=1358
pitch_keycenter=D#6
sample=Soprano_staccato_PP_D#5_RR1.opus
tune=-12
</region>

<region>
hivel=127
key=D#5
lovel=1
lpc=uhJgQv2kysLOb4FCqgA2wqU5IELZSbzAAqu3QYsn5cGzEbnAt1bXPylrCkCSrWFB/AYxwHBPbkBHkQnBSYTqwCCqTUAMhQ1BiiiKQHkEFcAn4Xo/KytUwPN5esHYoZJB
lpc_rms=-34.71
offset=3750
sample=Soprano_staccato_PP_D#4_RR1.opus
tune=-6
</region>

<region>
hivel=127
key=D#4
lovel=1
lpc=zd2qQqSEMcMlHf1CAsawwts+oUJ0dfbBeCQzQl6JdcJ5p6xB5SkCwYYA4MDlwNNBep8fwcaS9EDTjMrADF5Rwe+EPEEharLA/NqyQb/ursG86NlAxaIowaEKA791/wdB
lpc_rms=-29.13
offset=4461
sample=Soprano_staccato_PP_D#3_RR1.opus
tune=-16
</region>

<region>
hivel=127
key=C6
lovel=1
lpc=JBFVQiFElsJ/RKdBhFPuwGC2pUHA53TBdOWZQctmisE/AytBTBPKwGLdzb4vC2hANSigQCL9lMCd9aU/MqrJP6NjbzsbG2lAWflBwHXE+D5VoMa/4ZKXwEXQ38Dn6HFB
lpc_rms=-36.06
offset=1079
sample=Soprano_staccato_PP_C5_RR1.opus
tune=-4
</region>

<region>
hivel=127
key=C5
lovel=1
lpc=hMNGQpUKwcKK1IRCdw0cwmDd10GZhabAzJcmQbGIhcEdro9AKmH/v9I72T9vGwNBFp9GwM0HHj+d5S0/ZsMOwZuMg0CpC/K/7RM7QKD1AkBMg9W/BJVTQCC/EcG0teZA
lpc_rms=-35.55
offset=6063
sample=Soprano_staccato_PP_C4_RR1.opus
tune=-18
</region>

<region>
hikey=C4
hivel=127
lokey=C4
lovel=1
lpc=W6ojQhnZi8J5VTVCj7T+wd+6KEH1IEzBdtHXQfdooMEdkYNBvfZlQDvfwMCpLmhA4KJ3wMokosCpdHxAEG3OwHBT1UDZRjDAFORgv07XtT9PQO8/0smpwEKon0DF/Ue/
lpc_rms=-34.11
sample=Soprano_staccato_PP_C3_RR1.opus
tune=+4
</region>

<region>
hivel=127
key=C#6
lovel=1
lpc=3FC/QU4w/sFzND9B/FAtwY80P0EmOsHAVJYQQaC/EsFBsa9ATZOCwDKwc0Dp2Go/8cSDv+QyUz+hXzk/j6yjPqMgG7+j2IM/FNhIwG/BwD+5Ow7ArkhLQBnkgcAzrqxA
lpc_rms=-42.35
offset=4703
sample=Soprano_staccato_PP_C#5_RR1.opus
tune=-5
</region>

<region>
hivel=127
key=C#5
lovel=1
lpc=BD6lQj8IH8PbZJ1COuSYwbT0O0IaH+vBEYflQcGUJsJ+qGBBs0oOwTk0cEFr0khAJPXuwEjVdUBmxYc/yLYIwYTipb85HL1A73F2P+vPF0Hhk2FAd7FDwWrLosEmNLZB
lpc_rms=-30.80
offset=5058
sample=Soprano_staccato_PP_C#4_RR1.opus
tune=-2
</region>

<region>
hivel=127
key=C#4
lovel=1
lpc=BqSSQlNb/cJVg5dCSKyNwpi7OUJcT4/APlrhQd7tNMGZwh3BG6NzvzHnC8FagTxB8Xn7v1erC0AGG49ApkPQwFmiEEDbwQS/1JGFv3UGu8BmU9NA9gCVwF9MdcA8avNA
lpc_rms=-30.88
offset=3954
sample=Soprano_staccato_PP_C#3_RR1.opus
tune=+14
</region>

<region>
hivel=127
key=B5
lovel=1
lpc=ONoHQqBKY8KNYSdCtpIPwZPF28C2zUtA+5YBQVGhgMHJUotB85jRwL7YwMDhw6VA3ZASQSg7ZcERPYBAnEXkQOKgRsB818nAHlQoQWZwxsAgiGvA5tSOQeIgocEuAg5A
lpc_rms=-36.33
offset=3561
sample=Soprano_staccato_PP_B4_RR1.opus
tune=-3
</region>

<region>
hivel=127
key=B4
lovel=1
lpc=cwArQocXqMJ2uFVCe9DhwQRRr0ERUe+/0EbGQFYgPsGjlqNAMrgHwEwIg8BUb71Aby24v9d7ecBmjhZBtsq/wM5cBr+ars++S6uEQHw5HsBLCKE/9Q+tPQn3vcCfp7FA
lpc_rms=-39.02
offset=4342
sample=Soprano_staccato_PP_B3_RR1.opus
tune=-9
</region>

<region>
hivel=127
key=B3
lovel=1
lpc=bbBJQkuHusJ0LoBCJVpGwhLlzkGoGn3Af1zBQZYFo8HvARFBa16KwNvc0sAYnwJBTijDwA9yfcDe2T9ByPYlwfpu5kDIlly/K2TTQGYfE8GOoTpA9CJvvpSbNMF2HCZB
lpc_rms=-27.68
offset=2030
sample=Soprano_staccato_PP_B2_RR1.opus
tune=-2
</region>

<region>
hivel=127
key=A5
lovel=1
lpc=TZtDQkf9lcJ+7RRCYPrIwDfyRkGL8H3BYytZQec5KsGOrwxBF3xLwJv2Vj7ES1PADzywQJdh1j/Sva0+9niywKx9HUBo+jlAClRwPqbx+r9jerc/FvYhwF/pg0E55I7B
lpc_rms=-39.03
offset=5967
sample=Soprano_staccato_PP_A4_RR1.opus
tune=-19
</region>

<region>
hivel=127
key=A4
lovel=1
lpc=28kiQtLAgsKmK+FBsDCUwZasn0F0nPLAaYBeQXbNTMHXEUBAHaSDwKY5E0AoO59A8qywvi+Zx788KSa/7mxBQE5MLsBcHK8/sySQwNdtDzzI7vk/C+MUvvzqbr/qNjdA
lpc_rms=-40.72
offset=3884
sample=Soprano_staccato_PP_A3_RR1.opus
tune=-11
</region>

<region>
hivel=127
key=A3
lovel=1
lpc=TcYvQj06jsIMrDhC1AFBwsPA4EG+ASHB8K+nQVgbdcHMIUZBrQ0qwbwzqEAxYZk95+sKwBILLkBOocU/iloZvxyaqj8JjrLAVKYjQExdp7+rEa6/65PAPnDwhMBHo7VA
lpc_rms=-31.44
sample=Soprano_staccato_PP_A2_RR1.opus
tune=+6
</region>

<region>
hivel=127
key=A#5
lovel=1
lpc=zPiVQv3bAcN48LtCiKZfwgeJPUIfLdHBHdizQcy708EpQ5VBWScawTevaD/r74JBE6CawUfoJUGCKPw//VGRPV9/EsHQMA1BscmHvqTNJUAaoB9AS+Jdvxo0zsCNwBPA
lpc_rms=-30.23
offset=1772
sample=Soprano_staccato_PP_A#4_RR1.opus
tune=-1
</region>

<region>
hivel=127
key=A#4
lovel=1
lpc=G7wmQnjVs8LvIINC77fvwflkjEFWmzbB9m7kQY+J/8EGQIVBm6c9wAWINcGo/DJBjAjlwACPMD/wCU1BxvKowNJgFsHDEx5BZp1mwOYJwb9QwCVAU24+wBbQgL8RF1NA
lpc_rms=-34.50
offset=1299
sample=Soprano_staccato_PP_A#3_RR1.opus
tune=-15
</region>

<region>
hivel=127
key=A#3
lovel=1
lpc=5ZeNQcJ/w8EXqjtBxTKNwZv3S0GSsIHAi9X8QKLZj8D2zWs/n0u+v1faMz9+/tE/coGVPmz+rL7/Kug+aGTTvlwOST+6WDHAQ7E0P4MGar+Wcik/yjMXP8G2tr/iLcA/
lpc_rms=-41.26
offset=200
sample=Soprano_staccato_PP_A#2_RR1.opus
tune=+3
</region>
</group>

<group>
group_label=RR2_64-127
lpc_hicc1=127
lpc_locc1=64
seq_length=4
seq_position=2

<region>
hivel=127
key=G5
lovel=1
lpc=T50eQmWns8LKk+JCXxy8wjmhakKKVsDBKvqjQR1pCsIObilCIkOTwT5q9sDTa8pBQdTBwZnCJkEDPqVAdvPgQIzVmsFhPrpBacqKwZu6U0F/ss3A3v9QQfFUjsFAs2ZB
lpc_rms=-22.40
sample=Soprano_staccato_MF_G4_RR2.opus
tune=+17
</region>

<region>
hivel=127
key=G4
lovel=1
lpc=PhGqQUBXZcJA8pVCFhiOwu+FU0JwqxDClcYDQjdWGcJ5eBlCF7TWwejXOUE0848/HA0HwUZwCEGzrZW/RTxhvttcZcB8p71AcLQFwdOG00ATrIXANYiaQMtKzcB4HHBA
lpc_rms=-23.09
offset=730
sample=Soprano_staccato_MF_G3_RR2.opus
tune=-11
</region>

<region>
hivel=127
key=G#5
lovel=1
lpc=MwCJQdzzB8K7MDdC0wEuwgdXEkIm6NHBgEvPQZTzp8H5pVtBm2UTwPYPAcD67plAgQCwP6XWAsD0sMA+luerQFiOqsBmkAlBhXABwURSaEGaj6TBICLAQdIRbcGRYwBB
lpc_rms=-27.80
sample=Soprano_staccato_MF_G#4_RR2.opus
tune=-12
</region>

<region>
hivel=127
key=G#4
lovel=1
lpc=Ufm1QdABYML86XpCm5xCwqer8EHkzb7BhDISQqSKQ8IR6xxC5Q5twdCZHkBq1b/ATDhKQXojh8H+nHNBboCOwLawEr9A5lnAqn1vQAF84r/plxvAs2gBQbvpA8EoEWpA
lpc_rms=-24.09
offset=479
sample=Soprano_staccato_MF_G#3_RR2.opus
tune=-19
</region>

<region>
hivel=127
key=G#3
lovel=1
lpc=YnGhQZ6FXMJtqYtC53iAwnKKS0JgoB3CgsYZQjotI8JSTRRCfXvbwZPldkFB25HAJ0I5wJAk2EBnLAHBJRYDQU/cEMGPYkZBiDVTwVA4HUG6lZrAYFI/P+tQj78Q768/
lpc_rms=-18.97
sample=Soprano_staccato_MF_G#2_RR2.opus
tune=-14
</region>

<region>
hivel=127
key=F5
lovel=1
lpc=7/zEQVmJgcIIHKtCUfyRwuJeKkIxBZDB6buIQYNT3MGF9/ZB5oS3wbJ9V0HyrEDAGIiWwFh5Q0FyMI3BaJ2EQYd8/sBIm0lAxgivwNu8VUEPZ6PBonCsQXaNVMHjnKdA
lpc_rms=-21.58
offset=327
sample=Soprano_staccato_MF_F4_RR2.opus
tune=-2
</region>

<region>
hivel=127
key=F4
lovel=1
lpc=I1GvQbXydsJ6i6dCLhSbwl3VS0IMhdvBJvK6QVx1BcID7CVCD1MPwhwRp0FlPKvAOcmYwJA+/kCAb9LATFViQOxtBUCbZKDAcWhgQPBPLMC6TNw/wyQBv36fh7/Edqc/
lpc_rms=-26.22
offset=1018
sample=Soprano_staccato_MF_F3_RR2.opus
tune=-9
</region>

<region>
hivel=127
key=F#5
lovel=1
lpc=q30XQqmorMIP28RCr8mRwvlXJ0IcSZjBrW2vQR700MHqt6JBQPT8wKbjMMBXl2xBlztewVwGB0Eg4H0/WWIhwAvtq8Ax0oBB0r8qwaFyeUCDGbU9b+PmQNSZf8EFnltB
lpc_rms=-25.54
offset=104
sample=Soprano_staccato_MF_F#4_RR2.opus
tune=-3
</region>

<region>
hivel=127
key=F#4
lovel=1
lpc=nNegQYCCRsK/cVNCR4oUwvk1pEH2gobBn9C4QSa1ocF4DBdBXcmePktKmMCp3cNAhmrXwB16G0CO91RAEhfwwIS7OUF2tCDBEXD/QO799sDeLuNAxmYBwZIPcUAcoik/
lpc_rms=-26.31
offset=911
sample=Soprano_staccato_MF_F#3_RR2.opus
tune=-10
</region>

<region>
hivel=127
key=E5
lovel=1
lpc=BkEXQl7aycLRPvtCW6zFwtK2bULSDBzCfjVEQm4BZMJldA9CCpLHwBh5p8DJ5gQ/P41AQQGkL8G38JG8/ngGQGa1CEFbw8LBjskTQq/sBMKPOpNBJGEVwG0JsMDOU51A
lpc_rms=-18.87
offset=404
sample=Soprano_staccato_MF_E4_RR2.opus
tune=+5
</region>

<region>
hivel=127
key=E4
lovel=1
lpc=IBPvQQZTncKCCr5CUmSkwoJldkJ6Z0PCVkJKQvmXR8IWkBZCrJDSwZAXmUGoVj3Bzx6vQBNjG0D/NwDBa8sCQdrjAsFqmcBA/rqxP6z9tL9DUq/Adl4NQcnoIcHqrrRA
lpc_rms=-25.52
offset=708
sample=Soprano_staccato_MF_E3_RR2.opus
tune=-12
</region>

<region>
hivel=127
key=D6
lovel=1
lpc=X3bUQRQjOsKtmTJCsLkEwv/JrEEimYbB7LCsQf2uw8FyDMBBbDKFwZ2uGEEeY3PA6YidQBrJrMDaDO9AArydwALdoT+KMC9Af9iEv6yNqD0MLkjBZeBZQfHJssChL0tA
lpc_rms=-25.22
offset=1020
sample=Soprano_staccato_MF_D5_RR2.opus
tune=-4
</region>

<region>
hivel=127
key=D5
lovel=1
lpc=FaI8Qkq5/cL+NhdDOcnxwqrfuEKZEqnCHofAQlS+xcKOG5tCGCJEwqi1v0GjJbO/1q83wcu2bUGAJC/BFaYQQQeOjsEndttBzHzEwSjlk0FGrEvBKx1EQT00gMHLMCBB
lpc_rms=-19.48
offset=90
sample=Soprano_staccato_MF_D4_RR2.opus
tune=-9
</region>

<region>
hivel=127
key=D4
lovel=1
lpc=VO0jQs2e2sKAy/dCXZG9wmLgbUIY5iLCd0k8QoE1L8IuD+VBAJmiwSdVlUHAtz/BkssyvzTzeEByD2tA3gszwQUW7kBNlZFADQMHwY7T8kClDKXAIFdvQErlBMHYBrZA
lpc_rms=-22.81
offset=4191
sample=Soprano_staccato_MF_D3_RR2.opus
tune=-2
</region>

<region>
hikey=F6
hivel=127
lokey=D#6
lovel=1
lpc=VgGaQeYRNcK5ZWBCGY1DwoLbDkJAOs/B9+bBQVKH1MHQNdpBcku8wSEAjkGxPQbBIzlqQDnqJsAJOa5AhnSxwJB5MEB/SKe/j55bQKzFF8GWV09B6aUtwSQZpEDV/Ac/
lpc_rms=-24.93
offset=137
pitch_keycenter=D#6
sample=Soprano_staccato_MF_D#5_RR2.opus
tune=+3
</region>

<region>
hivel=127
key=D#5
lovel=1
lpc=P6DUQT7vksIjf75CM0apwiDTXUKiJ6DBkyvaQPAPP8GeS5ZBZHmzwb+VRUHcvB1AzT6XwJLSsEDhbk/AVMPIwDRmTEHxk3HBW/95QZY4PcHPOf5A18DZP2/jMMGQw+hA
lpc_rms=-21.44
offset=297
sample=Soprano_staccato_MF_D#4_RR2.opus
tune=-8
</region>

<region>
hivel=127
key=D#4
lovel=1
lpc=KRf3QaHsnMIxQq9C6dqRwnoeYELqXjDCsWA4QovDPcLHOhRCe1+1wctwVEFBzODAlxB5QGN/jcByGa5AaKKCwAk0FrxSOY0/+eitQJAPCMFyprZAKpAnwFIcisApI5ZA
lpc_rms=-23.45
offset=1436
sample=Soprano_staccato_MF_D#3_RR2.opus
tune=-14
</region>

<region>
hivel=127
key=C6
lovel=1
lpc=twRvQS2EtsEmv7BB/zKHwXkVYEFQG1LBDdBiQeEQP8F9URhBfU61wKFWREBStie/qtXHPoVHKLzlpgQ/e27fP/TtVsDQ38BA/43pwCM9A0FSy/LAT08OQYceLcE21TtA
lpc_rms=-33.18
sample=Soprano_staccato_MF_C5_RR2.opus
tune=+6
</region>

<region>
hivel=127
key=C5
lovel=1
lpc=aT3jQf4AksKz77lCUIWswsjfbULhVtfBmxIoQZu5WsE6EJlBbhdmwUO1UUCjpk5BTw29wT7NnEEgAGE+xIyWwWYJwEH3f2vB0D2VwBE9i0FSTIzBdgtOQYs8E8Gm76RA
lpc_rms=-19.86
sample=Soprano_staccato_MF_C4_RR2.opus
tune=-22
</region>

<region>
hikey=C4
hivel=127
lokey=C4
lovel=1
lpc=pKvnQVvZp8IiPdRCj/KrwvqyXkL1ufjBnSGqQSog0MGdBPhB5ObpwaVtykGFcJfB5jEsQXnrlsAnBehAB+BmwRmpckHX5irBmTj+QPrFF8HrfEhBaqQ5wcFSs0D9Ym2/
lpc_rms=-28.72
offset=5465
sample=Soprano_staccato_MF_C3_RR2.opus
tune=-7
</region>

<region>
hivel=127
key=C#6
lovel=1
lpc=Lb4XQqIzqMJSP71Co1WOwom6MUL25rzB6yx2QTUUUMF0KIJBPsF+wbH2W0E7ggHBCivmQK7H/MDxHUFBrq1pwXuKokEvTJ7BguNgQa7h58CUze5AKnCdwXcNlEHojbHA
lpc_rms=-25.31
offset=583
sample=Soprano_staccato_MF_C#5_RR2.opus
tune=-1
</region>

<region>
hivel=127
key=C#5
lovel=1
lpc=wu+vQd/MW8KfDotC4DKHwhgyYUL4RUHCp6JFQsL7OcKbMRtCf33zwQAOrEFuwSfBljdPvsiLAUEO9AjBB8/oQHqYCMHg8RZBi7PMwH6BVEBjIj3ACGx5Py4ffb/mex5A
lpc_rms=-20.38
sample=Soprano_staccato_MF_C#4_RR2.opus
tune=-10
</region>

<region>
hivel=127
key=C#4
lovel=1
lpc=tyj4QdEEo8KR4LtCRCyRwqnuIUKiOG7BoGfqQE0VwsA62QBAVlJRQPn3AcGOGGhBUxWSwRKHeEGG++bABLNcP/Ol1r9IPQVAlwHrv0IHekDgdTrAyDZ8P0JQPsBkvCVA
lpc_rms=-23.58
offset=4139
sample=Soprano_staccato_MF_C#3_RR2.opus
tune=-2
</region>

<region>
hivel=127
key=B5
lovel=1
lpc=41xzQR3nhMF0roVB0URawXWyY0Eq21jBji59QZcKc8ETB4RBEClwwd83ekHqC13BAmhsQas+W8EEd3NBJHdiwVQcekG/5WjBG3JzQaPATMF7hUdB5+EqwfnsSUEcBDnB
lpc_rms=-30.62
offset=744
sample=Soprano_staccato_MF_B4_RR2.opus
tune=-15
</region>

<region>
hivel=127
key=B4
lovel=1
lpc=C4wbQUwvvsF6i+hB7FvPwdYGmUGIvFzBKA0pQcYv+cAA+LdAC41OwAxT5D+bvDjADlpPQCN5J8D0W1BA1XhYwNrcP0C1PALAohTVP62uur/wsge+QDazPwfYmb9m3D8/
lpc_rms=-30.72
offset=983
sample=Soprano_staccato_MF_B3_RR2.opus
tune=-3
</region>

<region>
hivel=127
key=B3
lovel=1
lpc=N57jQUZlqcLL2N9CFN7FwmtDl0JRQ3XCtOxmQm0aQcLdNAVCU3uewe3jh0A67JxA8Ti5wHrxJ0GuIXXBlC1xQRN+SsEdHjpBguxawR6MBEFMj1pATTASwWEJ8UCnxyXA
lpc_rms=-23.64
offset=4485
sample=Soprano_staccato_MF_B2_RR2.opus
tune=-2
</region>

<region>
hivel=127
key=A5
lovel=1
lpc=PAQaQlLze8LQXJFC4XEiwvFbqEHGoQDBtMbeQe59A8Iu5RRCR12CwWgMLUEPHRE/1+0XQevDuMB/xxtBgMmpQAkzmsBA8VxBuDF/wCIrCkENd8PA5yW7QRSJr8HRca1B
lpc_rms=-22.09
offset=72
sample=Soprano_staccato_MF_A4_RR2.opus
tune=+16
</region>

<region>
hivel=127
key=A4
lovel=1
lpc=iu03Qck118F62uxBPOXRwaP3o0EplnvBRA1wQSZ0X8F6C1BBnHsXwV38xUDXFbnAZMlMQF7MO79N4xhAlZaJwPLRlUDPj4nAQ7KIQEwUtMAvIr1AuOuIwPKBGkC4Thq/
lpc_rms=-25.97
offset=402
sample=Soprano_staccato_MF_A3_RR2.opus
tune=-9
</region>

<region>
hivel=127
key=A3
lovel=1
lpc=oajFQZI+hMLCh59Cqk+JwofpWUJpvjTC3mgsQmv2H8IS4/lBioCewft+hkH+EK7B3oOwQXrsgMGVWVlBPQRqwZ7gdkEVzEjBSGTsQLqv+8BNSjVBan8nwT10xEBNrsa/
lpc_rms=-21.43
offset=81
sample=Soprano_staccato_MF_A2_RR2.opus
tune=-14
</region>

<region>
hivel=127
key=A#5
lovel=1
lpc=eLIXQulYdcJMx35CesM4wuoJLEJPcRnCxvsoQoEn/MEx1d5BCWuewRk6oUF6zeLAMWhHQLMvdEDVxizAD0hYQWhoQcHeFFtBWRr3wAHOR0FVsZfAZDLPvnUrWUGHb/fA
lpc_rms=-23.76
offset=740
sample=Soprano_staccato_MF_A#4_RR2.opus
tune=+11
</region>

<region>
hivel=127
key=A#4
lovel=1
lpc=MmYPQXfDscEqzOlBE4TkwdjlqEHD62vB0uhWQes0XcHHgGRBRfliwYUiaUHXpWjBtWsiQbsjh8AHTs0+wOW3vUmAXkCQe5jAsnltQNQi47+knJg9aWxkPpoEgD2rGjQ8
lpc_rms=-33.14
offset=795
sample=Soprano_staccato_MF_A#3_RR2.opus
tune=-10
</region>

<region>
hivel=127
key=A#3
lovel=1
lpc=jVaSQZyoUcI8VpJCbeGXwusghEKu5EPCugEUQgUuA8KLkPVBt4zKwUeThEGbiR3BKhe/QFM12b/SZEBAwTYLweLjSEEZeGfBuMVOQV3KBcEsJoNAkX6AvyDkM79dcyE/
lpc_rms=-24.86
offset=5021
sample=Soprano_staccato_MF_A#2_RR2.opus
tune=-23
</region>
</group>

<group>
group_label=RR2_0-63
lpc_hicc1=63
lpc_locc1=0
seq_length=4
seq_position=2

<region>
hivel=127
key=G5
lovel=1
lpc=SnaDQnlNBsP8tuJC9fd2wghx3kGo2vvAmJLXQZ48OsKcDBhCx6QvwS3OZcEiAKNBaWnIwKTf1b/X6iBBya2iwauLp0GD9q7AS3V0wGxUx78xdRBBkO8SwRf9jkEGg0bB
lpc_rms=-29.99
offset=558
sample=Soprano_staccato_PP_G4_RR2.opus
tune=+4
</region>

<region>
hivel=127
key=G4
lovel=1
lpc=+k5GQvAe3sJ3xqJCWT0zwnmxV0L2rBzCb27kQdTgD8JXPKpBUznVwFX6lT+B4lpB/nVPwVjc5j/AqyQ+4qENwBFLXj872U2/YaiAQK5L4L8f1V6/P0Rbv2VHBUDMrtK+
lpc_rms=-32.52
offset=2216
sample=Soprano_staccato_PP_G3_RR2.opus
tune=-22
</region>

<region>
hivel=127
key=G#5
lovel=1
lpc=8IaLQsDB8cJ9AaVCd6gwwufcPEKt7cXBdh62Qa83FMKJPrlBC5oiwEzuzEDHUuJAS3IhwVhfAT/ilIy+E3ARQOr9iEEZMXLBpSYlQQuXWsERwjdBw5cWwQKf6UGEaJDB
lpc_rms=-32.21
offset=1391
sample=Soprano_staccato_PP_G#4_RR2.opus
tune=+8
</region>

<region>
hivel=127
key=G#4
lovel=1
lpc=z30FQquNUcK8d5JBVCpwwWQ9hUHl4pW/V0AKQZYSysAtyaQ+QAOLPoVPTMDrvGpAGhUDwDm2IMBwPbo/ZxgBwOEOAD+ZwoU/x6EUQDghjD9XQPw9d5P5vlweisCgaz9A
lpc_rms=-42.72
offset=7313
sample=Soprano_staccato_PP_G#3_RR2.opus
tune=-22
</region>

<region>
hivel=127
key=G#3
lovel=1
lpc=v75xQpHYzcKoYC5Cl5H1wS6UDUI0IxXBlM5pQbaLBsEfHgzB/BkpQUlRMMHpIX1B+RVlwXr5NkFjmAzBSiDrQF24A8GHRJu91rwKQWDfO8DA66I+9JMYwN8S6cBzSulA
lpc_rms=-25.51
offset=1359
sample=Soprano_staccato_PP_G#2_RR2.opus
tune=-2
</region>

<region>
hivel=127
key=F5
lovel=1
lpc=IUK5QgbbLMNLQuNCEtM7wvIe9UHXJtDBsOCGQpogi8L/+tRBfij5v2Nayr82Ix/BjGGXQe63BMHyM6BA4WMdwN/De0F6a3vBc5lrQMeR/L4C1gbA6L0twWvCAUJvt0zB
lpc_rms=-29.24
offset=2454
sample=Soprano_staccato_PP_F4_RR2.opus
tune=-3
</region>

<region>
hivel=127
key=F4
lovel=1
lpc=hCCXQmjX+8L9ZDpC5jrIwTxfzEHy2T2/skz2Qe4C2MF2lM1AfwUAwV48U0CkS9dANLcMwT4anj9kVobADa0QQNs8aUCoiy3AtET+wNzMDkHm/tY8Kb0TQTxCJsHwvwBA
lpc_rms=-35.09
offset=6308
sample=Soprano_staccato_PP_F3_RR2.opus
tune=-11
</region>

<region>
hivel=127
key=F#5
lovel=1
lpc=+04cQn/aksKqijtCoEE3wU1inUHLmprBWIfaQJY7I8EhKFBBHssYvxN6mT9mBjXA8X47wApTrEDHrV2+HKqpQNLdisBIwCi+yT1fwNZPJ0GPBYC/uffdv+d6+8AKWCBB
lpc_rms=-34.93
offset=900
sample=Soprano_staccato_PP_F#4_RR2.opus
tune=+15
</region>

<region>
hivel=127
key=F#4
lovel=1
lpc=iobDQmddWcObwBpDsL+hwh6StkKphDPCxSchQqLgqcLd8iFCJCVywBmlrUFg60U/FIFkwVQr0b8Iu2rBSey2QQibR8D+19E/OCIkwW4xMUCy7k5A1GRcQL96BMFIqaVA
lpc_rms=-26.56
offset=1495
sample=Soprano_staccato_PP_F#3_RR2.opus
tune=-16
</region>

<region>
hivel=127
key=E5
lovel=1
lpc=BIGbQpDOHsMaKgNDnzqEwvzQBUJ+rA3CLGODQlA4YML4VWJBwEbBQKIU6L+zSbVA1rhJwK+1TsAir+1AXK6WwRrt5kHzqH7BvS4cQT5hBsH6CRxB0TaiwcVQj0EWgHs/
lpc_rms=-29.71
offset=1751
sample=Soprano_staccato_PP_E4_RR2.opus
tune=+8
</region>

<region>
hivel=127
key=E4
lovel=1
lpc=qHK+QvVhK8P1uaVCl1ZtwvlLkEIi0QHCfb0mQjxapsHsA+pAfAX8wCAgisHianNBnNzCwdczNEES7INB1ItUwNKJ7j6G90nBBqZmQWHs0sAFq8k/6jTfwIiJV0APMjJA
lpc_rms=-30.91
offset=6225
sample=Soprano_staccato_PP_E3_RR2.opus
tune=-1
</region>

<region>
hivel=127
key=D6
lovel=1
lpc=XVUdQk+misLHHoJCZT5AwmYHmEH7x83Af/hvQfkFpcGoLtBBK6OnwTxH90DtvwFAz+UhwAue1EC1JV/ATwiGQDPjDMAbyxpACfL8wAdmpkDktKvA3jeYQAEWssBoAxlB
lpc_rms=-27.51
offset=1128
sample=Soprano_staccato_PP_D5_RR2.opus
tune=+2
</region>

<region>
hivel=127
key=D5
lovel=1
lpc=rUE1QjC7p8IjQ0VCOfXIwdvLfUHCnKJALzZYQRgjosFCEwO/U9npP4QKKsD3QQJBDW5cQOgf6cAzkju/KfyEwEW36T9uvgJBtNORQEpaDMFfbvNADBg4weVu/r8HLwxB
lpc_rms=-36.27
offset=7112
sample=Soprano_staccato_PP_D4_RR2.opus
tune=+6
</region>

<region>
hivel=127
key=D4
lovel=1
lpc=A5JVQseKtsJmHUJCQn4swtRHwEG7fcS/ZoDTQeUwW8FL69NAeS2yv2W/3MA9VoRAlo86wLdNCcGuLBBBsfWywJtJY8AELl5AYHAQPwtjhEABGypA1TE8v+HlmsD+TtY/
lpc_rms=-34.20
offset=5285
sample=Soprano_staccato_PP_D3_RR2.opus
tune=-7
</region>

<region>
hikey=F6
hivel=127
lokey=D#6
lovel=1
lpc=USytQZy8FcLD2ANCLr66wYBziEHOoJTBfX+oQYh/isGElzVBY6OpwBt9ZUAEMrA+kmArv8QRDMDqvwNBPy3twE87jkB+8a+/4o/GOzFoBsHGFCBBNVBdwLuEoj+/AQ1A
lpc_rms=-26.61
offset=783
pitch_keycenter=D#6
sample=Soprano_staccato_PP_D#5_RR2.opus
tune=+7
</region>

<region>
hivel=127
key=D#5
lovel=1
lpc=syVFQrB51MLmZ7hCSNJ7wlFWNkLnx4DBJfvFQfUQHsKtL6BB2t0cwbYz4UB1ovtAWnoNwWslykDZDi7AgGsFwSdVvEDbCZJAHA4Gv6lavT/u7wBAodWkwNflGMGf5UlB
lpc_rms=-30.92
offset=2751
sample=Soprano_staccato_PP_D#4_RR2.opus
tune=-1
</region>

<region>
hivel=127
key=D#4
lovel=1
lpc=fVe6Qv32NMPTadtCsRWZwrOxm0LiUOnB4mtYQrOWcsLtYB9BMAybv6S4XcFXWtNBqfsIwYjpKUGpuAXBkeW2wJvY6kDKS7vAbZhwQZh9nsFtGf5AjavdwMf0Q0BEU4NA
lpc_rms=-30.04
offset=5224
sample=Soprano_staccato_PP_D#3_RR2.opus
tune=-35
</region>

<region>
hivel=127
key=C6
lovel=1
lpc=uiyOQpEL2sLSaT5CKgmQwcFj4kFu08jB07XsQZI25cHHj29Bam1JwBR7xj/53BlA/vE4QNlcfcAufEpACxXfvy/g3L+LJ2lBR4siwf5eKkA3VIO/YESAv06E0MEAveVB
lpc_rms=-31.90
offset=1627
sample=Soprano_staccato_PP_C5_RR2.opus
tune=-1
</region>

<region>
hivel=127
key=C5
lovel=1
lpc=roIHQx/idcM/TQVDU7NwwllFLkJBoLLAr9w0Qhr0SsJ1U4RBpx8owQq4O0D1DZBAxgGMv0Yk8z8vWRRAplPtwAhtJMBjpsJAaP3dQPFBsL9cfXnA9EWHwNxsy8CPnl5B
lpc_rms=-28.40
offset=5302
sample=Soprano_staccato_PP_C4_RR2.opus
tune=-26
</region>

<region>
hikey=C4
hivel=127
lokey=C4
lovel=1
lpc=xUk1QjyhjsJ73xBCBpzowfwbM0GQZ5XBbd0XQlfvicHZGXpBrbmTQL9Wp8AaURXA+A3dwJDyksDMP6O/ZvHgv17i20CNRYQ+Ywg9QMvG37+KRj1AVPrGwE+EFUCbiRs/
lpc_rms=-33.43
sample=Soprano_staccato_PP_C3_RR2.opus
tune=+9
</region>

<region>
hivel=127
key=C#6
lovel=1
lpc=zjddQjY4qMKp7R9Cd5CtwXII00EpaHLBBg93Qf/xnMGDaitB8/5XwLWPwEB3QpA/vj3DvyrucL8RJrc/ZeYlQILevz/SqQw/YOCiwN3EekBLONXANeWvv6pu+r4WQSdB
lpc_rms=-35.17
offset=3947
sample=Soprano_staccato_PP_C#5_RR2.opus
tune=-41
</region>

<region>
hivel=127
key=C#5
lovel=1
lpc=2fzHQlojRMO7esdC8jPIwdYNhUKuD0HCv2wCQnnCOcJiQM1BiciDwbX/YEFrS6dA9KkWwa/DxEC8r19AtZXSwKE9pMC3IERAtHNhP7wV10AAmyxBtFk1wZgkw8H+cr9B
lpc_rms=-28.69
offset=5284
sample=Soprano_staccato_PP_C#4_RR2.opus
tune=-3
</region>

<region>
hivel=127
key=C#4
lovel=1
lpc=sZaoQoiUDMOdmZtCqwegwk4CaUIAFGnBQhs3QqS51sGWsDFA8t8GwSkS2cBmClxBbHqwwFdICEHOJ1TAOcAdwPwSjb08qyjAdQicwP5vBj/9rJo/RIylQDjwUMCrkCtA
lpc_rms=-31.06
sample=Soprano_staccato_PP_C#3_RR2.opus
tune=+13
</region>

<region>
hivel=127
key=B5
lovel=1
lpc=cfMkQldLgcLBFzdC9mBrwaVG/EDIFnLBDYmXQevAZMEg8zZBBaLWwIC2L79Re/8/mp8jQedtb8Hf4bBA0nl+QF/S4b/eX82/YianQB1CEMGKTCdB8ZcVPgCLGMED8BDA
lpc_rms=-35.35
offset=2025
sample=Soprano_staccato_PP_B4_RR2.opus
tune=-6
</region>

<region>
hivel=127
key=B4
lovel=1
lpc=GzQsQpDPksL63w5CeeCowYzLVUGqjoFAPH9+QZnHjsEX0+9ApE/4wIkVIMAxSpFAC60IQG0Nd8CQurVA5MaCwOj1YMAcNpJAjDWMQJ7XaMBQABlA9O5LwK1M5MCqpQVB
lpc_rms=-39.33
offset=4175
sample=Soprano_staccato_PP_B3_RR2.opus
tune=+7
</region>

<region>
hivel=127
key=B3
lovel=1
lpc=frAgQvijqcIuWotC94RFwsy1+UHl7SfBrtKTQVV5ucEZwz9B11uNwJOEhr/oGWRACJHivxTckMArtQ1B3YCvwIPKZr6P8W9An22Qvm3zQz4Q06O/2fJyPxm8A8HFTdtA
lpc_rms=-26.76
offset=2807
sample=Soprano_staccato_PP_B2_RR2.opus
tune=-10
</region>

<region>
hivel=127
key=A5
lovel=1
lpc=us14QoeVq8IFKu5BSesowVDOp0H79DjBb6+cQcwlsMFNKCtB5VkVwT1mB0H+wjTAWndCQLebp79IkY1Agr9SwLiMTcB2W5xACQnGwGstFUHl04y/iBElQFdQDr8+FBHB
lpc_rms=-35.72
offset=2527
sample=Soprano_staccato_PP_A4_RR2.opus
tune=+8
</region>

<region>
hivel=127
key=A4
lovel=1
lpc=wfgoQii+ocIai0JCXa3OwU503UEJykDBQws1QSsOe8GPMAs/awCzPxlizj8uQSZBL076wHjqHECG4R/ApIfPvtZBtj92t3k+zKJqwJVyIkDqbUg+mp5eP83rzMDgPcVA
lpc_rms=-38.80
offset=5945
sample=Soprano_staccato_PP_A3_RR2.opus
tune=-4
</region>

<region>
hivel=127
key=A3
lovel=1
lpc=oPsqQpnXfcL6LhlCpUE6wjg4x0GCrTvBgmusQSkQGcHLE1RBZD8kweVdiECE+IXA1B4KP9C2Cr/wKKpADAQGwOL1e0CEQ77AoOIhQAY3fsAZX72/ejUTP9uvXsBTAL1A
lpc_rms=-33.57
sample=Soprano_staccato_PP_A2_RR2.opus
tune=-1
</region>

<region>
hivel=127
key=A#5
lovel=1
lpc=r1egQr+JEsOLuOFCON52wvSGPkJnAAfCgd/1QTzDAsLZbLVB1kMRwQ59c0AN1gNAr8VZwG9+Y0A1y0LALr0MQTksaMEGlkhBjRdRwKF4i0AiVLDAzRAPQbZlEsFLnoXA
lpc_rms=-30.38
offset=922
sample=Soprano_staccato_PP_A#4_RR2.opus
tune=-12
</region>

<region>
hivel=127
key=A#4
lovel=1
lpc=2uswQtmbuMIAt4BC+g3mwbYRV0FSmgnBXKTwQf2m9sFVEaRBkbL4wIGoF8ELbkBAZb8hv02Mhb65Ev1AbEGBPljfhcBRm3tAhIT4vz9fVcDZ/Q5AMYHUv9T/EMB2D4hA
lpc_rms=-35.60
offset=2194
sample=Soprano_staccato_PP_A#3_RR2.opus
tune=-2
</region>

<region>
hivel=127
key=A#3
lovel=1
lpc=AZWXQTN+7cGHk4JB0rmYwT6gV0F5tUnA3eUXQbGGscDcYEI/+YEawAj1vz4+g3O9YvLQP2uasr+U/gxAwYPxv0eE9j9BfDvA3ZAIQFscaL84HCS/eHSXP2FHEsAP0Ow/
lpc_rms=-40.11
offset=5870
sample=Soprano_staccato_PP_A#2_RR2.opus
tune=-13
</region>
</group>

<group>
group_label=RR3_64-127
lpc_hicc1=127
lpc_locc1=64
seq_length=4
seq_position=3

<region>
hivel=127
key=G5
lovel=1
lpc=MjwgQinFqcKIBc1C0bCswswdbUJFBsDBbjbmQBpTEEDXmsnAp14xQQ+AvD/GZ1HBnW6qQU6LocFXz6BB6RXkwN8zmD5iBXJANjHxvxNFqkAL+k+/5iduQIhnEcHkA0dB
lpc_rms=-21.48
sample=Soprano_staccato_MF_G4_RR3.opus
tune=+3
</region>

<region>
hivel=127
key=G4
lovel=1
lpc=f63EQfExjcKUicpCnpXQwruPo0KThFrCZDwkQk+qH8L2iCJC/kgRwt4340EtSpvB2gdyQTrLcMF7YpNB8NiAwSrwBEEBNjw+UuQCwftWL0EgJVLB8zZfQa00NMH/tqBA
lpc_rms=-23.25
offset=437
sample=Soprano_staccato_MF_G3_RR3.opus
tune=-11
</region>

<region>
hivel=127
key=G#5
lovel=1
lpc=uU2UQX/LCsKs8i5CdSwawqxjDUINXfTBBGXsQcEYg8GA3KtAM++1PnemtED1jM7Aba00QRLaWMHW7ahBZImuwbJzmEHhb+XA3/1hQNr8VUAafSvBlEOnQeOEisFo5y5B
lpc_rms=-27.74
offset=473
sample=Soprano_staccato_MF_G#4_RR3.opus
tune=-6
</region>

<region>
hivel=127
key=G#4
lovel=1
lpc=ZJ+cQecpSsLfYnNCxZJDwsKp40GWF5LB9TzLQR/bCsLimORBrT8awb0JJsCSZOo/9oF3QBuJCMHRLxVBwFNuwOrdiL+AM2c/ZavBP79GssCE2qpApp1Mv0tetr/FKp0/
lpc_rms=-23.30
offset=336
sample=Soprano_staccato_MF_G#3_RR3.opus
tune=-17
</region>

<region>
hivel=127
key=G#3
lovel=1
lpc=Zm66QQBNhsJcE7pCbGS8wiM6mULN4k7CeEoXQhz9CsJa/wJCtfXOwUlJcEE3N1LAluL2wAslVkGov1rBHU9FQaV4F8FrhClBlSl2wTQRk0Go7o3BODdYQV5iEcFm6m5A
lpc_rms=-20.01
sample=Soprano_staccato_MF_G#2_RR3.opus
tune=-13
</region>

<region>
hivel=127
key=F5
lovel=1
lpc=7/bMQU9qhcILgqtCFdOJwrPlDkLBU3rBTSDUQRPcL8KqHiNCKyyUwWkiRUA0yVfAdoUeQZpyF8Ch8JrBQfICQqIrocGV4xpAdTfjPyaPKUH+LNnBvAj+QYXsmsGdctlA
lpc_rms=-22.01
offset=7
sample=Soprano_staccato_MF_F4_RR3.opus
tune=-10
</region>

<region>
hivel=127
key=F4
lovel=1
lpc=wSC6QUFXgML1TqpCdp+cwj6BTkKoCO3BtIfNQegN78GaOvtBy9y/wd+BR0EPUQzAXQ4hwFImZUCW11HASwScP8tvmj83Cta/mUc2P8/WH8AkoaRAGRaowKmeGkDcQK49
lpc_rms=-25.70
offset=1924
sample=Soprano_staccato_MF_F3_RR3.opus
tune=-15
</region>

<region>
hivel=127
key=F#5
lovel=1
lpc=GlzbQUM+Y8IEontC+749wnaQ3EEfnn3BAZqyQTh3l8GpBTRBxpcOwcy1IkFKMdzAqqzFQFq1LcCFJ+NAVRHnwK8lScDKg2NBNenvwNCR0D6IboU/4CIYQd8gl8HLQ2hB
lpc_rms=-24.72
sample=Soprano_staccato_MF_F#4_RR3.opus
tune=-7
</region>

<region>
hivel=127
key=F#4
lovel=1
lpc=IousQdsMWsL2SHdCPfY8wlTaxkEENFTB852KQSwskcHEJDNB8doEwDY/xL9BaWo/kLHbv2BoAT+uNsE/6ylHwOl2ykAXrrbAyRy4QDHOv8BhtDZAaW6Gv5ylGsCVBjlA
lpc_rms=-26.70
offset=1041
sample=Soprano_staccato_MF_F#3_RR3.opus
tune=-14
</region>

<region>
hivel=127
key=E5
lovel=1
lpc=9uT6QQzqpcJ/RNRCf0Kzwpygb0JKqzPCCTVPQnUsR8I849lBJ9vLwKk2tz8tXdfA3+RkQRwoM8HJMhFBROt0wSjurEHkDc7BAwrkQd6SxsFA2o9BrcPdwBMn2784RldA
lpc_rms=-18.10
offset=30
sample=Soprano_staccato_MF_E4_RR3.opus
tune=+13
</region>

<region>
hivel=127
key=E4
lovel=1
lpc=mzrnQbZ/mcK3McNC94i1wuoMjkJ26V7Ck1JYQsvSUcJU0iVCgnzuwVXfqUG/MWvBSLonQdrktcCgRBxARkpzwOkNsEBCb6vA1AYWQdXOIcEydnVA1UgFQFGuycAkj4pA
lpc_rms=-25.23
offset=1086
sample=Soprano_staccato_MF_E3_RR3.opus
tune=-11
</region>

<region>
hivel=127
key=D6
lovel=1
lpc=YeZxQaN1BsKN1R5C0IYIwvnlw0ETSZfBsVunQbgLx8Fn3MxB7QKqwV8gYUE3SpzA9o/HPeZSOEC06kPA2QY2QK4Nd8C7pKRA/FeFwN2ZRUDGaNbAlbIBQXBLtcBDrkRA
lpc_rms=-23.98
offset=843
sample=Soprano_staccato_MF_D5_RR3.opus
tune=+7
</region>

<region>
hivel=127
key=D5
lovel=1
lpc=mOU2QkbQ+MLlyxRDAKHuwlxZtUJ0gpzCxc2hQs/RjMKIEQNCxWxLQMsUA8G743xAr7GZwTyv/kHuX8XBty2YQUGVuMH1VwpChFkNwiLdX0GpjRRBn1sZwWoJXcAfgr1A
lpc_rms=-19.50
offset=76
sample=Soprano_staccato_MF_D4_RR3.opus
tune=-13
</region>

<region>
hivel=127
key=D4
lovel=1
lpc=WDohQm9D2sKiRf5CSLHFwngdbUIO0wzC01cgQkFXLsL5xAdCKDuVwc7R9kCjlkU+NS80wZ+QgkG39FPBRkNcQD3rQkB35yJA+lv3wFJIg0HMhcXBPQWgQRYcWMFxQ8BA
lpc_rms=-23.02
offset=5160
sample=Soprano_staccato_MF_D3_RR3.opus
tune=-1
</region>

<region>
hikey=F6
hivel=127
lokey=D#6
lovel=1
lpc=um/GQbffVsLRQX9CSedFwqOd5EHIPXPBTZxCQU7HU8GRtHxBqTdWwbTJCEGZifM9nF9ywLv/t0CpIMy/cXoewKiVu0AUktLA/eseQXhGysEc9g5Csl/swSr2TEGf/QS9
lpc_rms=-22.60
pitch_keycenter=D#6
sample=Soprano_staccato_MF_D#5_RR3.opus
tune=-1
</region>

<region>
hivel=127
key=D#5
lovel=1
lpc=2uPUQQgDj8JkTbxCw7e3wh6LkUIlXj3CicckQpqLLcIQ+BhCXvvbwd0cL0HitDVAd+iOwLkXHUAf5f0/A5njwJby3EC1sn3AW4+zQGk8A8G4cy5BWIgKwQjqzz6HdERA
lpc_rms=-21.25
sample=Soprano_staccato_MF_D#4_RR3.opus
tune=-12
</region>

<region>
hivel=127
key=D#4
lovel=1
lpc=VvneQXXAjMI7laZCgvybwiy4h0LBf4HCNuqDQkD/WMLowxpC4lLOwdhoaUFwM6PAgZUev3h+BMAdLzNBadBowUgzR0Ei0QDBU6mLQLvVFcFVRlpBB4RNwbTr90A8wKa/
lpc_rms=-22.85
offset=1520
sample=Soprano_staccato_MF_D#3_RR3.opus
tune=-11
</region>

<region>
hivel=127
key=C6
lovel=1
lpc=wf9AQbownMH9ppZB/itvwU3DRkEV7irBFNssQWUfHcGdXxFBg+7RwAx8kUB7jArAGOHXP/N/gb8d44A/P/G6PolXlL9jyktAnCqJwA4zr0A4MaDARQ3CQOwCG8Ej2I5A
lpc_rms=-37.21
offset=612
sample=Soprano_staccato_MF_C5_RR3.opus
tune=-5
</region>

<region>
hivel=127
key=C5
lovel=1
lpc=T98WQmJTwcJIQOhChRTFwti+g0JpAAbCgiOoQaR2y8Ho181BDtR1wZNAoz/uwl1BjW+ewdH9eUGnMJo/sjGYwYvpxEGtgGvB4k8BwYqtrkFI/pPB1G92QRTpfcH5NBFB
lpc_rms=-20.55
sample=Soprano_staccato_MF_C4_RR3.opus
tune=-13
</region>

<region>
hikey=C4
hivel=127
lokey=C4
lovel=1
lpc=/YTNQTS7j8Jph65CrvSIwmnlM0KC9OHBCq+xQd35wcF+4blBpguWwc1npUElGrLBY2tcQQEFpcCwSdxAm4MlwYxLIUHTV/jAoACvQLcFA8Gd4kRBVEIgwTa1SUB7Rvo9
lpc_rms=-28.17
offset=5432
sample=Soprano_staccato_MF_C3_RR3.opus
tune=-10
</region>

<region>
hivel=127
key=C#6
lovel=1
lpc=NrXKQYJPY8LWi4dCfldQwsJnA0KOnI/BuV5eQdbsZcFjN4lBq1hkwTSyHkF8AsLAeagBQSkqIsGNA0NBkuktwbI+O0ENuTvBTBc7QUESDsGacgtBF+OMwQR+jEF4SO3A
lpc_rms=-25.13
offset=678
sample=Soprano_staccato_MF_C#5_RR3.opus
tune=-1
</region>

<region>
hivel=127
key=C#5
lovel=1
lpc=8MTPQVFkgMKLqZtCY6iIwtIHTELDkyLC4cYbQgZEBcJKnLhBeNh5wQ8BIEFLZ66+n1UGwVVob0ESYADB1UXfwHVBWkGErSnBf9pnQOOCdEBBAwnB75L6QGpD2cBY36NA
lpc_rms=-21.33
offset=393
sample=Soprano_staccato_MF_C#4_RR3.opus
tune=-13
</region>

<region>
hivel=127
key=C#4
lovel=1
lpc=kVfnQZfCmMLznbFCcm6LwoVVLkIkLtbBlMqpQSSDM8HqfkHASYYfQZGAI8GFqk1B9xJ1wfyTVEEO5wLBFxe1QFvkvMDNk/Y/bSMxQDEDdMBA3q4/u2d2QDq64MB7cHRA
lpc_rms=-23.20
offset=4735
sample=Soprano_staccato_MF_C#3_RR3.opus
</region>

<region>
hivel=127
key=B5
lovel=1
lpc=MoZsQS7zgcGE4FtBefbuwB5Z7kA/GA/Bo19nQalgbMGOjGVBiaUewWAyFkFtqfnAGu4XQeKLAsGWFBNBQZIDwV6ANkF/o0LBLn5OQbDE+8DYc5tAAuEYwFns10Cy0AnB
lpc_rms=-30.50
offset=1035
sample=Soprano_staccato_MF_B4_RR3.opus
tune=+1
</region>

<region>
hivel=127
key=B4
lovel=1
lpc=XwkzQZv848HdPBJCDOoJwmXq20EJl6/BET2aQbDbh8HhF2dBtCgxwcqs/0CRAOvAhLDzQDlFqcAhNDxAarkCwMYWJEADIVDAZqg9QLnFLcAPbek/xN2avnjIV75nU+Q+
lpc_rms=-29.27
offset=600
sample=Soprano_staccato_MF_B3_RR3.opus
tune=-7
</region>

<region>
hivel=127
key=B3
lovel=1
lpc=ebzYQVS8ncKjl8tCdOixwmijhELAaz/CMrQeQvKOBMKUe8BB9SZlwTQd+UCjTQjBUqZrQF0VQ0G1i53BCkGLQSADisGc7ZNBnl2KwVSUA0F18kRAQvQJwY+2BEGsm0rA
lpc_rms=-24.18
offset=4358
sample=Soprano_staccato_MF_B2_RR3.opus
tune=-8
</region>

<region>
hivel=127
key=A5
lovel=1
lpc=X6QcQn4ifMIatXxCwMXjwV+aTUH4oKHAKdXNQYX/68EoPNFBQn2xwKjg8UAkCZfAtdaPQVklfsGCQi5BDRJAQdmWKcFomkNBKNQkPyUea7+2ooFANL5aQaUtT8GBpWZB
lpc_rms=-22.77
offset=167
sample=Soprano_staccato_MF_A4_RR3.opus
tune=+6
</region>

<region>
hivel=127
key=A4
lovel=1
lpc=rm0rQTD0ysH0iOFBzru9wYPBb0HPMc/AuZqZQBsGkMDxXBZAWsR/P9aOCsB63mY+5LwBPyGuiz5GPNq+MdQTQHsWkcAT+K1APoiiwIHhA0CyGpQ/o54XwBQBA0B4Cxe/
lpc_rms=-25.01
offset=290
sample=Soprano_staccato_MF_A3_RR3.opus
tune=-1
</region>

<region>
hivel=127
key=A3
lovel=1
lpc=iaraQa0SmcLAgcdCQn+5wvf8kEKEhEnC7wEdQiw7FcKdMwpCg5fBwSvRWEFn7x7B5GwaQdW378CKmwJBTgYywTexXUG+G3/BLhZtQZjGUMGT5xpB9n2OwFOuHEAGZYq/
lpc_rms=-21.78
offset=66
sample=Soprano_staccato_MF_A2_RR3.opus
tune=-20
</region>

<region>
hivel=127
key=A#5
lovel=1
lpc=0iyWQieOBsPlaABDc5KywlSJikLF4yjCUra/QSjlucEO9DlCR+8twsKiA0KYNA/CaPtHQjaADsJGpgpCmo8/wqP2V0JI9g7CbcYlQvrKUML7uk1Cd8H9wfTH9EHH663B
lpc_rms=-19.68
offset=42
sample=Soprano_staccato_MF_A#4_RR3.opus
tune=+18
</region>

<region>
hivel=127
key=A#4
lovel=1
lpc=Qv8WQXRZtsH479ZBIDK3wU8ndkFI7S/BuWRBQdbgVME2aUhBxyBAwTRvSkFoSyjBWa5uQJisCkAmh3nAOxANQHLkjD/CH8i/vF/KPobynD8wejPA7O1NQCRpJMBsI40/
lpc_rms=-31.38
offset=1253
sample=Soprano_staccato_MF_A#3_RR3.opus
tune=-9
</region>

<region>
hivel=127
key=A#3
lovel=1
lpc=SCkFQgcw3cJK7ylD4Dcqw5NS+0LbqI7CiXUvQgjeLsLZOEhC7UpjwmTcbkJFx0jC5kvxQXe06MDuYIjAV4YSwKglR0GZ3mXBcO5KQSqWZcFvzJRB9POTwZ4mL0EbsyTA
lpc_rms=-23.14
offset=1451
sample=Soprano_staccato_MF_A#2_RR3.opus
tune=-24
</region>
</group>

<group>
group_label=RR3_0-63
lpc_hicc1=63
lpc_locc1=0
seq_length=4
seq_position=3

<region>
hivel=127
key=G5
lovel=1
lpc=fCieQjMLDcNkjuBCi2Z4wqwaKEKX25zBS/ksQuOoVsK8K71BjTo0QCqTGMBZQHJB4OX6vxC9SsEfoYJBSZgiwcVobEHln9HAcXAgQXIHBMHuKxpBbYvxwNyy/kDt08pA
lpc_rms=-28.85
offset=552
sample=Soprano_staccato_PP_G4_RR3.opus
tune=+5
</region>

<region>
hivel=127
key=G4
lovel=1
lpc=RGtBQpWKxsLI8XBCvBUJwvgiLkItekLBbtmvQNWHssH9MhBBev2Qv8lj4T5nhTBBh4b3wGVPzj9zJns/bdHtwLSkuTxxPFy/HyHaQMZH2D6l8wRADqDPv/sm88BP8qtA
lpc_rms=-36.42
offset=10235
sample=Soprano_staccato_PP_G3_RR3.opus
tune=-22
</region>

<region>
hivel=127
key=G#5
lovel=1
lpc=RisrQrVancL2NolCgjgiwllbDkJSB4vBhWv1P7h+S8B1n01BB3qDv4Zz98A1mlBBGGIowf2IO0FDyVHAcitqPY1tUkAQNFE/qJJqQGi81MCpdX1BmhGfwZJOqkGftKjA
lpc_rms=-35.69
sample=Soprano_staccato_PP_G#4_RR3.opus
tune=-42
</region>

<region>
hivel=127
key=G#4
lovel=1
lpc=uXObQVuFK8ILiglCKLCbwQ3WjkE4NVTBPizTQIuZ2cDiwAVB9We5v0zki8D7zmpAneWqwIggSkAzW0tArpkKwEMxET+BujbAeFoEQM9pn7+b3ztAd2syv3yxN8AkjwJA
lpc_rms=-38.34
offset=2027
sample=Soprano_staccato_PP_G#3_RR3.opus
tune=-14
</region>

<region>
hivel=127
key=G#3
lovel=1
lpc=1xaMQg8wtcJp7LBBiVU5whnJNkJrb87BorAWQiKdq8GEOSFBYCaCwMZgGkBtSDRBC3T+wCse9kDKjEzBtvAvQXgeJ8EvL6xANoofwBH+kj8DrbLA7iIkPhFmqMA0OglB
lpc_rms=-31.78
sample=Soprano_staccato_PP_G#2_RR3.opus
tune=+4
</region>

<region>
hivel=127
key=F5
lovel=1
lpc=NJSlQqMDK8PMaPRCVCoewpDso0F6A9zBbFJbQnRlhMK9tgJC/yr7QBOO8sCCnY3Aw0gAQadBR8EFMldAGOU9Qac0lb5D9AvBgpXCQK8A88AD41q/7YH+QFHJIkE9qx7B
lpc_rms=-29.34
offset=2481
sample=Soprano_staccato_PP_F4_RR3.opus
tune=-14
</region>

<region>
hivel=127
key=F4
lovel=1
lpc=gls8QjrEdMLxzaFBlSidwdprrUD5NJnAErG2QRBlVMGHqx5BkLpjwINxBz5FT5NAYpRnwM1O57823BbAd1zgP03ayb/egB1A93PXwG8yj0BVt5Y9f9WFP2FSHb/S/QRA
lpc_rms=-37.73
offset=8030
sample=Soprano_staccato_PP_F3_RR3.opus
tune=-10
</region>

<region>
hivel=127
key=F#5
lovel=1
lpc=wbcXQnU5jsJQgUVCEvuPwTlGt0F+HpnB3moLQaULYMG/1mJBhNlCQAFBOMBpKkDASFalP4Plrr8EDMpAEnQGQJmWGb+uiKrAnJH3vnWS/EDRYkxAUE0dwKpFL8Hy8T5B
lpc_rms=-35.16
offset=1601
sample=Soprano_staccato_PP_F#4_RR3.opus
tune=+4
</region>

<region>
hivel=127
key=F#4
lovel=1
lpc=S6gEQ8u3i8N2tSlDzLqbwi8LykKyGyfCyWc5Qsrqm8KUYKRBUt9UwcBfq0Hb4TtBW0GoP8VPIMFXlyzBdqE7QXYOLL9flGbBKU2eQP+iRUCOsDNBbdSyPo+8jMHQ+h1B
lpc_rms=-27.11
offset=1771
sample=Soprano_staccato_PP_F#3_RR3.opus
tune=-21
</region>

<region>
hivel=127
key=E5
lovel=1
lpc=8h6UQguZIMNQrgZDcAduwqbk70GQii/CjayiQl/KjcKfnvNAi3vKQfX9t8AKqmfAzLCGP+cZSMDENylBTOfCwZk640FAy57AdqwlwNOYJsEbUZ1BTvOuwQMiXEFyGso/
lpc_rms=-28.89
offset=4591
sample=Soprano_staccato_PP_E4_RR3.opus
tune=+11
</region>

<region>
hivel=127
key=E4
lovel=1
lpc=X4SYQs4OFsPeQqxC3ohfwmTAm0K+vDHCJg0uQvAuMMKZU6pB7r2bwWpyCr6plFlBCytfwZhNPEFxiRJB+PrvwA5zUMB66rzAGDCiQB+jTUD1bVzAOJZkwAjrzEAuZ5O/
lpc_rms=-29.60
offset=1864
sample=Soprano_staccato_PP_E3_RR3.opus
tune=-18
</region>

<region>
hivel=127
key=D6
lovel=1
lpc=wgxXQhIwvsKNbZJC+Towwi0irkFsdCjBR4HGQSkFFsJg8AdCcjqOweEbrL19VBhBBvOAv1kTZ78v+cVAmMyQwCHhSL/fQoA/XZwzvr2AacCQnag/drQsQNgJ3sAp5y9B
lpc_rms=-29.41
offset=1184
sample=Soprano_staccato_PP_D5_RR3.opus
</region>

<region>
hivel=127
key=D5
lovel=1
lpc=JQpBQg1HvMJ/HHpC/kfzwQm0h0GA/WpAWQ5sQW4F0sF6xptAque1v+iOdEBglvpA0rIBv0Vo8MCSCem/p2M5wIn+CEDLqEZBlLwsvyj708Az7v1AiqlJwR8qasA04i9B
lpc_rms=-36.40
offset=5454
sample=Soprano_staccato_PP_D4_RR3.opus
tune=-7
</region>

<region>
hivel=127
key=D4
lovel=1
lpc=7ihDQu1KwsJKw4NCbhhJwltiEUIcmoLAZxK4QbjF38EbWEBB2aoYwZtEgT/DAJNAeAErwPhJp8Bi0EBBikAJwXqoXz8AgzVAhsUIwDRoRL+ZSbtAcAnYwJ1J4D6nlgJA
lpc_rms=-31.30
offset=3656
sample=Soprano_staccato_PP_D3_RR3.opus
tune=-15
</region>

<region>
hikey=F6
hivel=127
lokey=D#6
lovel=1
lpc=0zeBQcj1BsLsiAhCfV/gwcptsUH+35HBTlaSQf4VcMHfKfxAaq0hwOACYT8wG7A/8z0mwLr3g0D6lyHA3pOMP/J8bb4hQyfAsOyVPx1SBkBsWXPAQoyRQGUNvb8E7go/
lpc_rms=-34.87
offset=847
pitch_keycenter=D#6
sample=Soprano_staccato_PP_D#5_RR3.opus
tune=-19
</region>

<region>
hivel=127
key=D#5
lovel=1
lpc=qLVTQqSY7sJTp9pCU2KPwuJWM0J460nBjL22QSHCLsJIhfBBgVSTwRTZQkFuP51AZzUKwXlESEBlI6xATK5qwRKEEUFATb9AhTjvwPqqxECAN6c/4juHwBQQHcFJYEJB
lpc_rms=-30.68
offset=1141
sample=Soprano_staccato_PP_D#4_RR3.opus
tune=-5
</region>

<region>
hivel=127
key=D#4
lovel=1
lpc=IRFvQjtIDMPKivxC8WCpwmckgEJ0khPCA3AUQn2+WcJqID5C2F7YwSPs30ApXWNBGtXAwQ2eVUGDuZZAi6NQwaWUVUFixeLAgH4GQWgiNsEEJvFA8Rc+wdxbwkC0DhtA
lpc_rms=-27.82
offset=6230
sample=Soprano_staccato_PP_D#3_RR3.opus
tune=-29
</region>

<region>
hivel=127
key=C6
lovel=1
lpc=/H+MQn95zcJbGxlCyoJmwUKd60Gj68vBnfTkQWiI4cF7fYdBukPLwPOkmEB/e869BTkSPzZo0z/JdB+/fZsIQEg1kMBceUtB/xgUwezd80DlQvTAi6WZv66vo8G5fM5B
lpc_rms=-31.74
offset=1483
sample=Soprano_staccato_PP_C5_RR3.opus
tune=-4
</region>

<region>
hivel=127
key=C5
lovel=1
lpc=TRXJQh5aQMN11NdC1ntcwrqXjELO+93BKSzZQWdiDMK8ixPAcnzDQKWYbUDzXR1BN9HLwHNeZEBi14O/XA1hwVyjBb9g+QZBhKooQf578D9oGYfAEJkDwBJbs8HYMK9B
lpc_rms=-30.32
offset=5762
sample=Soprano_staccato_PP_C4_RR3.opus
tune=-17
</region>

<region>
hikey=C4
hivel=127
lokey=C4
lovel=1
lpc=ZWRTQqr4xcKfsWhCJr0GwjJJb0EeZCnB1SAxQm39AsIs+qBBnhGiwKWIJ8G7VABA0DX3wH4ig0AlfMS+bxUvQDq/xz8u7RK9B6HFvqk9Ez0CkAZATuqvwLbdXUAB+cS+
lpc_rms=-29.99
offset=3606
sample=Soprano_staccato_PP_C3_RR3.opus
tune=+5
</region>

<region>
hivel=127
key=C#6
lovel=1
lpc=GFGaQjPn7MI+vYJCeYUKwiRY9UGkW5/BMS+1QW1R0MEfJYxBcLOEwBd6dEAyIbNATFJKwJYuvcBPrAVBsXV4QHqxyr/kNk9AFFySwPoqPEAsQ7zAYIZKwdl72ECuMmdB
lpc_rms=-31.09
offset=764
sample=Soprano_staccato_PP_C#5_RR3.opus
tune=-17
</region>

<region>
hivel=127
key=C#5
lovel=1
lpc=hv7RQvI9XMOy7PNCDkoJwSA/Q0IcAHjCc0wqQrTtOsKIMsZBgAjzwHLBS0FDWBTAHawrwfhYNkFPmdRApIcjwYqzE8HHUHpAecIGQJUyMEG05TpB5QuRwaNhqsEVIL1B
lpc_rms=-28.28
offset=5796
sample=Soprano_staccato_PP_C#4_RR3.opus
tune=-1
</region>

<region>
hivel=127
key=C#4
lovel=1
lpc=t22SQpOPCsNbDKRCzfKEwjTykEK0x8rB4ZEWQlN8LMI95Y9AHc8ywXj8IEHqeTZBHtSGwJOMU0FgdLTB570rQYhl7sC376FAdnnDQKm7J8G5Vc1AURb9wCsxn78QndlA
lpc_rms=-28.98
offset=4734
sample=Soprano_staccato_PP_C#3_RR3.opus
tune=+4
</region>

<region>
hivel=127
key=B5
lovel=1
lpc=ShYuQouiWsJB+uBB1kO4wBoFo0DkLx7Bs4dxQQ/qWcG96AFB1ON4v9bx/b/ibAhAFT8zPoeRlr/LSwxAYHVrvk7SyD45O+6/NBmtQFHYtcCw3IpAX0mtP+BDYsDkhRbB
lpc_rms=-38.43
offset=7852
sample=Soprano_staccato_PP_B4_RR3.opus
tune=+3
</region>

<region>
hivel=127
key=B4
lovel=1
lpc=/kclQkTVpcLTFlRCjPjIwfS4cEGrIYE+iHiXQeIZv8HkBrdA0ROlwL1kSb7empZA3UlrQEcazsAQgs1Ac9DhwCD8nb2thYVAD5GVQB6HxMCzJnxAl1wEwBiOAcFvI/5A
lpc_rms=-37.17
offset=5908
sample=Soprano_staccato_PP_B3_RR3.opus
tune=-6
</region>

<region>
hivel=127
key=B3
lovel=1
lpc=4QETQiXjjcIhUEtCm2Aqwj+2+kEP6unAhbWDQWqOisEwebBApLumwFQKw78qn75AE+eYwHTEQEB8EjdAg5dFwE0pR0BUV5LA5yDEQFP0+cA1vbVAUXJywNi2xL8wv1NA
lpc_rms=-28.41
offset=4966
sample=Soprano_staccato_PP_B2_RR3.opus
tune=-4
</region>

<region>
hivel=127
key=A5
lovel=1
lpc=v6oVQu4rQ8I+K6dBz1iHwSsFm0EBbQ7B3283QVdbVcHr8hRBzmVVwF8pnD/4t6A9ggHSPoFdar+0lixA+DKkwOle1kA7n8LAo/XrQPh8jcD5iMJA2QpjwCS9OkCYKcrA
lpc_rms=-37.26
offset=1255
sample=Soprano_staccato_PP_A4_RR3.opus
tune=+14
</region>

<region>
hivel=127
key=A4
lovel=1
lpc=tPDoQXSmccIBiDNC2JrgwfZXzEHQK2HBy8kqQUWNTsHM7NhATHgYwGIh2L0rgqtAIkanwO3OPUBw0i4/Pc27v5f4LL0KwcQ+ZQfgvxSthr/dD15Ar2zPv+jU4b9YCyFA
lpc_rms=-36.70
offset=6551
sample=Soprano_staccato_PP_A3_RR3.opus
tune=-16
</region>

<region>
hivel=127
key=A3
lovel=1
lpc=lWYSQqKpf8J6qjBCdWoqwr7b5kHsQTzBVO+CQSr0PcGOfvtA5EaPwDQHN0CmgQG+q3cwwJuIyz8Undq+5FDnP98JAEB/eZLATUwhQJH5DMDzLOS/JxLmP53CecASV4xA
lpc_rms=-30.93
sample=Soprano_staccato_PP_A2_RR3.opus
tune=-5
</region>

<region>
hivel=127
key=A#5
lovel=1
lpc=M7d5QjAa5MIN/8FC1ayFwnb5WkIdwgXCkZfQQdGVB8JBpc9BJ/z4wJEVoEDh2yhA60VJwaN2t0A8GHdAhSDKQHCBIMHQOsRAxXoowXr6LEFVVLBATdPfwElgMUCHXgnB
lpc_rms=-30.83
offset=1681
sample=Soprano_staccato_PP_A#4_RR3.opus
tune=-1
</region>

<region>
hivel=127
key=A#4
lovel=1
lpc=naI7QpBx0sKhkaJC4hMpwkkHvkFth07BYY01QnxeUMIAYrpBQ30ewdyxj78avnA/zT5VP74yVkBwn4a/6LoDQPir8cA48SdB2PGFwBFcJEApzoTALfOnP+EDwMDS575A
lpc_rms=-31.84
offset=2120
sample=Soprano_staccato_PP_A#3_RR3.opus
tune=-4
</region>

<region>
hivel=127
key=A#3
lovel=1
lpc=PPqjQTpWBMIMWqdBjNK5wXove0Gfbs/ADqEhQWX3mMBD/ExAGMYXwGLOdz8VNVG/+RNXvlZkoL/fTjRAY179v4OZBkACJnrA4itJQDL7D8CuVaM/SBwePvfWCcAaO/4/
lpc_rms=-39.19
sample=Soprano_staccato_PP_A#2_RR3.opus
tune=-2
</region>
</group>

<group>
group_label=RR4_64-127
lpc_hicc1=127
lpc_locc1=64
seq_length=4
seq_position=4

<region>
hivel=127
key=G5
lovel=1
lpc=si9CQlBt1sK/egJDb7/YwtKMoUKl+lHC7Og7QhjBTMJRl1FCuk/nwbKWOUG/som8EBItP4dJlcA2UixBfM/iQBpjkcG+WZtBWs1ewTDUnEFF/rPBnTkLQlc3DsJLUrdB
lpc_rms=-22.11
offset=265
sample=Soprano_staccato_MF_G4_RR4.opus
tune=+1
</region>

<region>
hivel=127
key=G4
lovel=1
lpc=K6m8QV0QhsI4V7pC7bW4wqhOjkJGqEbC1ro5QklVasK5vYNCBiFhwvhIFUKEwY3BgtyQQC0kM7/o2LdAFgPQwEluIkCiaqM/L6/ZwMtcA0Hn0svAsJ6hQOpwsMD/kFhA
lpc_rms=-23.03
offset=174
sample=Soprano_staccato_MF_G3_RR4.opus
tune=-15
</region>

<region>
hivel=127
key=G#5
lovel=1
lpc=lRCkQVzdKcKieFlCVPA2wm+GA0LoCcbBWrQOQna5LsKNpyRCiyXAwV1HCEGWy5lAGNtmwPAY/D+7L/i/hfQxQSeFmMHQFclBmyl1wUa2t0AcjLi+Q5l6QJl7ZcCwc6RA
lpc_rms=-22.84
offset=326
sample=Soprano_staccato_MF_G#4_RR4.opus
tune=+2
</region>

<region>
hivel=127
key=G#4
lovel=1
lpc=SxGKQVHpL8JLOFpCwtw7wiKt6UHTCZLB6SWqQWiJ2MGXzbFBF78GwSZUtj4fjTu/x3tEQMAu8b/E3hDAZ/+9QH1WvcAa54BAnVclwJhgAr/EK8M/Z9tZv6OTpz+z9XS+
lpc_rms=-23.14
offset=205
sample=Soprano_staccato_MF_G#3_RR4.opus
tune=-19
</region>

<region>
hivel=127
key=G#3
lovel=1
lpc=/M7QQZ68lsLJ/8lC/4e8wgi7iULQ2SjCZ8oDQoGJCsLNju5BlRhgwaO+osALkJ5BwZPdwazZ6kHhpNvBP2bEQUKdpsGEWZ9Bo4ihwVihjUFttFPB0K/aQCxkNsCfPas/
lpc_rms=-21.10
sample=Soprano_staccato_MF_G#2_RR4.opus
tune=-15
</region>

<region>
hivel=127
key=F5
lovel=1
lpc=r2O8QbaSccL/iaBCzuyPwtCePEJ7X+7BHpUVQjplOsK6xwhCFde5wJnbKcHxcqZA9VcWQXu1CsE58STBtF/TQWyunsH5UMdAeP22vyPlKEE/H7fBYBu8QVeeO8H13HxA
lpc_rms=-22.22
offset=411
sample=Soprano_staccato_MF_F4_RR4.opus
tune=-15
</region>

<region>
hivel=127
key=F4
lovel=1
lpc=k6mwQSE2bMKU6JBC1B91wo1YH0JNz9DBbJTiQXnYCMKLLAhCj9bSwae7iEFBwTHB7iMiQdWHLME3txxBUYwfwQ3pNkHqvL3ArVQGwMrGc0ALCivAbZPVvVFkez/rdYw+
lpc_rms=-25.42
offset=797
sample=Soprano_staccato_MF_F3_RR4.opus
tune=-24
</region>

<region>
hivel=127
key=F#5
lovel=1
lpc=evzgQY4Gi8I+VrBCy0aTwqGCNUL1p5/Bo5pUQQ4COMEo7+tAeEEVvrD0UMBx74hATYcIP1amdcDel5RAdRIPQA0/JsFmXYVBLnpNwf++3EDAyUnAp+HmQPPoLMHrBgZB
lpc_rms=-25.73
offset=297
sample=Soprano_staccato_MF_F#4_RR4.opus
tune=-12
</region>

<region>
hivel=127
key=F#4
lovel=1
lpc=8Bu7Qb/6ccJo4oRCEX8twjF2gUEm7d7APXp5QTm9lMFCvDNBNnAHwP/K1b7QKgzAJx4pQIqys78fr5C/QZkBQPdONkBAjtPAPW0aQa3qG8Erb7RAkUG0wF4OXkBaloc+
lpc_rms=-25.67
offset=459
sample=Soprano_staccato_MF_F#3_RR4.opus
tune=-20
</region>

<region>
hivel=127
key=E5
lovel=1
lpc=rsIDQhwys8KfCehCjrrDwlMSgULJrTTCqao9Qgz7IMLPG4hBEt50wHRVckAoxp3AxwUfQVHRR8FRMoRB0py+wdSs1UFuWtnB/2TtQeZPwcGCenZBUa/uwItMBD/BLSVA
lpc_rms=-18.26
offset=42
sample=Soprano_staccato_MF_E4_RR4.opus
tune=+10
</region>

<region>
hivel=127
key=E4
lovel=1
lpc=DXj4QXdfoMIXIsFCYKyuwpcfh0LAiE/CjqFOQrCLUsKJrD9CqA0fwtt89UEPnq7BpY92QSSVRMGNMPBAjhEdwA3yB8BkHNtAQ9cbwCVfgMBDHR5Aku0jQGPgA8Ht57tA
lpc_rms=-25.16
offset=1323
sample=Soprano_staccato_MF_E3_RR4.opus
tune=-13
</region>

<region>
hivel=127
key=D6
lovel=1
lpc=hnGuQVRSLsLxoT9Cty8bwrmO2EEq9pjBDYaQQbP9j8FsA4tBjgxuwRguTUEhNvbAtCqUQCyhFsDfDapAcRy5wKGP/D94ZH1Af5vMwLau+UBdTInByBmlQfEtbMGv4dFA
lpc_rms=-24.79
offset=911
sample=Soprano_staccato_MF_D5_RR4.opus
tune=-7
</region>

<region>
hivel=127
key=D5
lovel=1
lpc=iWIlQmWG5sKcCxhDbOcTwxp+CkMM0gzDNmwbQ62OEsP/vMpC6AZKwiV6qUG2g8fA3DWCwf3XKUINBEnCOhs2Qh1kIcIOQxpCcBoKwrs2rEFFx+PAeEmbQMbnA8ESD7dA
lpc_rms=-18.99
offset=91
sample=Soprano_staccato_MF_D4_RR4.opus
tune=-11
</region>

<region>
hivel=127
key=D4
lovel=1
lpc=I8YSQkNbwsJan+BClRi5woN6hEIvKUbCb7NFQvwlNsJoEBZCirDNwQRLV0HHw0vA6WwCwdYgCkEj9bS+F12fwKv73z+cGexA88wmwRjGR0Ff+0XBjRz2QHHmAsEW6aNA
lpc_rms=-22.73
offset=903
sample=Soprano_staccato_MF_D3_RR4.opus
tune=+2
</region>

<region>
hikey=F6
hivel=127
lokey=D#6
lovel=1
lpc=VGPSQd3bYsKikolC621pwnakFEKu5qPBAWaHQTWfl8F/abNBpjKkwciDbEEW/JTAoBe2PxrHYb8boN9AOHogwaQt90Acb5i/N+FOwKt4icCE8UZBNV9IwXaMyEAAX5A/
lpc_rms=-23.76
pitch_keycenter=D#6
sample=Soprano_staccato_MF_D#5_RR4.opus
tune=-10
</region>

<region>
hivel=127
key=D#5
lovel=1
lpc=uEnNQabujMIMkb5C66e6wt1Yj0KJ+SXCywnhQf/rw8ESK4RBmPS6wE6st8CgiTNBgWj0wDUFrEBRye+/DQCowEBPR0Hm4GrBnjADQdrak0DUCFbBleiKQWKTccGRbdVA
lpc_rms=-21.12
sample=Soprano_staccato_MF_D#4_RR4.opus
tune=-10
</region>

<region>
hivel=127
key=D#4
lovel=1
lpc=Mm/HQf3vesIYaJFCKlmBwg2SVUKzAUzCVZ5gQlLDUMJRSyNC/47jwVaKlEGEow7BgUgBvqGcpED2gGDAiLnMvylziUBg/D7Ab0iGvxPBPkBPsZq/kFswv/ljj79G/Oc/
lpc_rms=-22.65
offset=1284
sample=Soprano_staccato_MF_D#3_RR4.opus
tune=-15
</region>

<region>
hivel=127
key=C6
lovel=1
lpc=1HSbQSbC98HstNNBZ2eTwf12c0Es6mrBmQSAQbnKZMEmyjRBmgqxwNdVEEDLUhi+goEoP07iJr/pwsA/7aWCP9OkmMDsYRxBPNkvwTt+MUGL4R3B8epDQaeXlcFnQBJB
lpc_rms=-34.85
sample=Soprano_staccato_MF_C5_RR4.opus
tune=-8
</region>

<region>
hivel=127
key=C5
lovel=1
lpc=9L7eQTJwi8JEQbNCtAKzwlK5i0KW/x/CMpKpQTZBjcEW8YtB71xxwflHCUG4075AObxlwYMIeEEp5Q3B5KrUvx3p+UDXb9vA/9iCwF3FVkEaAoDBiMqDQfdLQ8GHYKxA
lpc_rms=-22.63
sample=Soprano_staccato_MF_C4_RR4.opus
tune=-14
</region>

<region>
hikey=C4
hivel=127
lokey=C4
lovel=1
lpc=l/bxQUr+tsKVL/dCAobVwmJ3jEKmziPCZ/QAQl5GDMIIKfJBvNtmwTSJGUA6KQvAVoqkQNwUecCTsbpA8ws+wY5lZ0F0ZC3BiqmGQDb3sb9iUFFAatCswCMKckCGjl2/
lpc_rms=-27.40
offset=5122
sample=Soprano_staccato_MF_C3_RR4.opus
tune=-8
</region>

<region>
hivel=127
key=C#6
lovel=1
lpc=czffQTWChcJeCqFCl8l+wmrIMUI/swjCcAXzQSPF3MGF08JBjcqIwQu/GUGOUKU9i22uwGhgoECGSmtANJ1CwYOzhUEi60jBAykhP+FowUBqNn7AMzC1PgCpcr8DDA4/
lpc_rms=-23.65
offset=1075
sample=Soprano_staccato_MF_C#5_RR4.opus
tune=+12
</region>

<region>
hivel=127
key=C#5
lovel=1
lpc=KIK4QbWqbMI6dZtCdH2VwvukY0JWah/CO5MAQheAzMEYj59B6BmhwQ88nUEZ/RHBHy94wJgYTEFsYAfBWuSWv6aFOUAW9UhAis83weEplkGtPrbBZxelQamqbcGB0uVA
lpc_rms=-20.09
offset=220
sample=Soprano_staccato_MF_C#4_RR4.opus
tune=-11
</region>

<region>
hivel=127
key=C#4
lovel=1
lpc=M6EGQgBcvsIeTu1C22TBwokld0IwEyfCPgorQjmAG8JxVatBZpDnwCghaD9GBtJANAteweACYkEN/pzAsOwxwCnxFcAg2B9BEisxweeMFUECBcfAm1R0QGTWicAHKSpA
lpc_rms=-23.39
offset=5166
sample=Soprano_staccato_MF_C#3_RR4.opus
tune=-1
</region>

<region>
hivel=127
key=B5
lovel=1
lpc=2R9oQTbCY8FISFtBM4wIwfbVIkFzDhvBfyJWQTpUJsGqOx5BDwGmwBTbzUBjDZHAzzTlQCfhmcCXh8tA6wCJwCkoBkEk5hDByKpFQYITDcHtdwhBM6iywPsvGUHqFBDB
lpc_rms=-30.83
offset=739
sample=Soprano_staccato_MF_B4_RR4.opus
tune=-4
</region>

<region>
hivel=127
key=B4
lovel=1
lpc=j8ARQU4suMF47+dBb5jLwa+RkUFH7mTBZn1uQXpme8GyO1RBs8biwDZS2D9sBsi/Tl1bQILnWcD6rBxAYcrDvx4NHkAYYYLAc5CgQH/JjsAafhtAlpsRvwhWmTzEn2M+
lpc_rms=-27.80
offset=420
sample=Soprano_staccato_MF_B3_RR4.opus
tune=-23
</region>

<region>
hivel=127
key=B3
lovel=1
lpc=C/fOQQ1sl8I2zcZCzriwwl8BgkJmBzfCzYYiQgR6HsKP7ARCJnqhwYZL/EBSnOzA5+LsQNKKHkARUwbBwhcWQW1tQsHoPVZBIlxTwTWOF0F1GqHALeAdQJnt5z5hJ02/
lpc_rms=-22.95
offset=4557
sample=Soprano_staccato_MF_B2_RR4.opus
tune=-1
</region>

<region>
hivel=127
key=A5
lovel=1
lpc=LOwuQi4jnsL0lLNCiOR4wmDeQEK+XArCY24bQk9qAcIzFRZCIiwLwhBEJUJbiOvB/+DvQSZkqsFpz3VB5zq7QKY+8cCAJoNB1fxswWpbo0HCJBXBZ+EPQdhKj7/bEgJB
lpc_rms=-22.80
offset=293
sample=Soprano_staccato_MF_A4_RR4.opus
tune=+7
</region>

<region>
hivel=127
key=A4
lovel=1
lpc=uytQQWzN/MFeJRJCLQkBwqNJwEGVKJbB8ACFQQLjMcHXDMhACSWfv28QGcDIfXtA/iG7wAwygUAR9sU/QueIwHbsHEA7NNw9zL9Jv9aIyj9TTpbAJl7pQI79sMBwqfE/
lpc_rms=-27.35
offset=187
sample=Soprano_staccato_MF_A3_RR4.opus
tune=-18
</region>

<region>
hivel=127
key=A3
lovel=1
lpc=8nruQYmLqsJWHOVC1SndwkGwsUJMLHfCI+5AQrZ8NsL5YyNCTs3cwfRULEGBHuU+KSzTwFI5PEGVffDAyy+2vvEnIkDNfea/GmpZwNyA00AEqkjAmdeLvpGlDkCxJbO/
lpc_rms=-22.32
offset=125
sample=Soprano_staccato_MF_A2_RR4.opus
tune=-23
</region>

<region>
hivel=127
key=A#5
lovel=1
lpc=wEr4QSQULcJocgNCsOhMwS2LI0Gv9UHB2+ucQfw6N8HZ/ORA5E+PwLKU+UCEy+a/ONMdQM9y1D38/jNAV0kuQCx1SL8up8e+ojdOQJeOpECml0W/CfbEwE4DiUHzXTfB
lpc_rms=-23.52
offset=734
sample=Soprano_staccato_MF_A#4_RR4.opus
tune=+5
</region>

<region>
hivel=127
key=A#4
lovel=1
lpc=8GVHQYkX/MEAVA5Ci03XwdQ9ikGivVnBTO6HQQwVkMG0Nz1BwqvHwHJb0UD0mRXBlcocQd74tMAQ6DFAtAeAwEDMpECVJHfAWDFKPa02kUA96qPA6OdBQGBZGcB89Lo/
lpc_rms=-29.62
offset=380
sample=Soprano_staccato_MF_A#3_RR4.opus
tune=-15
</region>

<region>
hivel=127
key=A#3
lovel=1
lpc=xpumQV34ecLQbLVCJ8HAwlfmqEJmmHrCreBEQkUsPsIWnEJC2cc1woQVJEIWDB7CDloDQkNdpcFXilVBKTgBwQcghkDNRo/AInxOQA//Nr/vyjE/MZ0mwMLXW0ArhLK/
lpc_rms=-23.58
offset=5303
sample=Soprano_staccato_MF_A#2_RR4.opus
tune=-14
</region>
</group>

<group>
group_label=RR4_0-63
lpc_hicc1=63
lpc_locc1=0
seq_length=4
seq_position=4

<region>
hivel=127
key=G5
lovel=1
lpc=T5+YQoW7B8Poi9FCiUllwoyfFUJolY3BnV4eQjVQTsIz/QdCEhn3wGr0A8GEhJpBeziWwP+Pm78M1eBAlOsjwVlcRkFQRQXAo6cCQZreUcErymdB94c5wXjOhEF9TB7A
lpc_rms=-29.37
offset=1548
sample=Soprano_staccato_PP_G4_RR4.opus
tune=-1
</region>

<region>
hivel=127
key=G4
lovel=1
lpc=vlImQqnww8JXT6pCuHNjwvaYXUK9IxvCuObBQYxu38EKsL5BKqQgwdsMxL7XaalAABWVwKzWhUC7aEa+NH/PvzyYIcB2zII/G9dgP0ZWOcCFigRANzOvQAqs5sCvJTRA
lpc_rms=-29.61
offset=2241
sample=Soprano_staccato_PP_G3_RR4.opus
tune=+9
</region>

<region>
hivel=127
key=G#5
lovel=1
lpc=wFntQc2MMcIVfstBc6OMwZPKn0G2zwTBHiX4QK8iNsHnhwFBiaMXwPimrT0CM9ZA5OLSwIQbPkC4pWS/quL5PWsvq0A84FHAquGqvVe+7b9cpMpAHu0nwPmBskBPGqbA
lpc_rms=-41.27
offset=1998
sample=Soprano_staccato_PP_G#4_RR4.opus
tune=-11
</region>

<region>
hivel=127
key=G#4
lovel=1
lpc=f4e8QaboTcJgBBxCXVvDwei1ukGxeD3BFFhJQUOTgsHE/J5Aon74v+Jeoz/GNMZAvep9wDpTVr4J6gZANfSVwDpC7D8DG6a/hroCQNTHor4+e1c/treJPxBfU8D8W9I/
lpc_rms=-38.11
offset=5407
sample=Soprano_staccato_PP_G#3_RR4.opus
tune=-2
</region>

<region>
hivel=127
key=G#3
lovel=1
lpc=B6d9QvS+vsKMxOdBkO39waHj6UEvXtg/T8B3QaS/hcC/3gzBIJ8CQUwnosExG6VBrnxrwZBbaUGZux/BW9JJQS1PsMDVmIDAox+MQFywkcD5yGA+B/5xwKvMUcCDXedA
lpc_rms=-26.50
offset=3533
sample=Soprano_staccato_PP_G#2_RR4.opus
tune=-4
</region>

<region>
hivel=127
key=F5
lovel=1
lpc=R76jQuR/LsMq9QhDTZFZwsLLwUFnhcfBjId0QuHkn8KIiSRCK2uBQWlP08HqRIi9esEhQV5p6MBNt8hA8BWVQIcrMEHmBdrBS6KwQRhrlcGDdWNBXCWYweqnBUIxOXXB
lpc_rms=-28.56
offset=2102
sample=Soprano_staccato_PP_F4_RR4.opus
tune=-20
</region>

<region>
hivel=127
key=F4
lovel=1
lpc=JaKAQlAA78JETINCe1MJwh4l4kHDyxTBu9kNQilXMMLRLaVBWzxIwfTINkB4/01B55U6wTWWh0AEDYfAgCSwQKQxysDVgrRAdMkVwQ4EyECRct8+WbpPQGkVpMAe8DJA
lpc_rms=-31.22
offset=3878
sample=Soprano_staccato_PP_F3_RR4.opus
tune=+17
</region>

<region>
hivel=127
key=F#5
lovel=1
lpc=UgC4QvxfFMNPAZ9C7jozwop/XEKw+J/B5nHYQXQ95cF5631AIbqkv6cQScChsWhBhWyaP0ra0L6EGvA/RJqfv2obTUBZNR3AhFuDQDSVWMBp4oZAGBmtwNHPkUGrZbbA
lpc_rms=-32.25
offset=2556
sample=Soprano_staccato_PP_F#4_RR4.opus
tune=-20
</region>

<region>
hivel=127
key=F#4
lovel=1
lpc=1yDdQtpcZsNBvwlDyed/wjE8tkKvhS/C40kYQtYxkcIkB7FBoippQXdk9EDT/XtAT/tlwRhwJ7+IDJrBWCO+QQ0Ddb4T65NAZ1g9wXRraECZy2g+KZu2QExXN8EK1OBA
lpc_rms=-28.08
offset=3301
sample=Soprano_staccato_PP_F#3_RR4.opus
tune=-11
</region>

<region>
hivel=127
key=E5
lovel=1
lpc=7VGYQqBtLcOQyhJDIa2JwqWVIkKS6TnCWSGeQoTYmsLu679BNpMtQVGPN8GhaB1BCVr/Pc3Vu8CuKTNAhU94wWFH9UHPSb7B9tOdQSxPmsEEdaNBjxMVwsjkKkJAIXjB
lpc_rms=-29.01
offset=6963
sample=Soprano_staccato_PP_E4_RR4.opus
tune=-108
</region>

<region>
hivel=127
key=E4
lovel=1
lpc=vFVqQskzAcNoqc5CsZqYwpswpkL0OmPC4pYkQgzULsIcsvlBp0WHwWuZKUFtfMy/BNQUwQ33DkF4N6i/sH7bPqCnlcD/NpzASWxQQeJWiD/0Ly7A6KEAwdLLKT82BpRA
lpc_rms=-27.98
offset=1298
sample=Soprano_staccato_PP_E3_RR4.opus
tune=-19
</region>

<region>
hivel=127
key=D6
lovel=1
lpc=8U4OQs2zjcI/7X9CAsgvwlAao0GYX5XAYVJcQeq+u8FRDrBB6vpZwa5tL8CnEVdB6uS8wBjxSj9jVHdAVQ1lwBUwF7+FENe+6sSqv2cB7D7D2gNAaSzsvTMGMcByFpRA
lpc_rms=-32.16
offset=4951
sample=Soprano_staccato_PP_D5_RR4.opus
tune=-21
</region>

<region>
hivel=127
key=D5
lovel=1
lpc=+iB1Qj+9+MKqjrtC1LtHwqeT10EG/YzA69eWQQvK4MHw0CVBU4jJPquiWMCJGxhBqCJowPZZCcC2PvS+sV5swEz4Nj0yqgBBA6zCQK4kGMHrBjBBGOEmwacZYsHCk49B
lpc_rms=-31.95
offset=2189
sample=Soprano_staccato_PP_D4_RR4.opus
tune=+14
</region>

<region>
hivel=127
key=D4
lovel=1
lpc=RB1vQoka1sKq+GdC0fs4wpLb3EG7iIlAfZS7QdgIj8E6Hw9BdT7CwI4TlsD51JdAZC3OwAnARMBS9O5AU7nxwGDO0D8NqOg9y0AmQCgb9T8+nI1AYF26wOt9Gr84voA/
lpc_rms=-33.53
offset=3878
sample=Soprano_staccato_PP_D3_RR4.opus
tune=-2
</region>

<region>
hikey=F6
hivel=127
lokey=D#6
lovel=1
lpc=KcuMQWkBBcJjhvxBDlnBwfGPhEGuC2HBrbyGQXmubMEAAQpBZfRbwLBCKz9y5g9A7D+LvsSM7L2WtbY/XPkSwKGSuD8StXM9DuldPgWL2cCYKhlBdVuUwPuYtD+lkrQ/
lpc_rms=-32.27
offset=1496
pitch_keycenter=D#6
sample=Soprano_staccato_PP_D#5_RR4.opus
tune=-32
</region>

<region>
hivel=127
key=D#5
lovel=1
lpc=pD1WQpXx58KQEMhC41Jwwub3HEL4SrnBDzUOQot9JMKjuY5BgDFGQLEr18A6vAFBdEAvwVpC9kBmOKS+ocC8wGiTP0GkwyPAGTeWwId7RUCcu588UQtHQNvlZcEpIlRB
lpc_rms=-32.34
offset=2229
sample=Soprano_staccato_PP_D#4_RR4.opus
tune=-5
</region>

<region>
hivel=127
key=D#4
lovel=1
lpc=fdWRQp0XFMORtaVCm+UVwvazhELpTjDCsJDwQYX0NsItOu5B9/eJwZcuOUHO7D9BNBZxwSgVskAOCtLACRh/vsHsEEECvTrAEspsQCdumsDLRPi/uJDxwA311UC2OBFA
lpc_rms=-29.20
offset=6925
sample=Soprano_staccato_PP_D#3_RR4.opus
tune=-33
</region>

<region>
hivel=127
key=C6
lovel=1
lpc=vQK1Qn67FcNyRq9CKtgUwqi11EEggtfBxKAWQqCU/MGI9K1BsswywW2c1kDhxTHAVN3Uv8WNF0HfNAjAXwU5QBd7WcB9NvBAufctwbNDRUHDXc7ArWM5QR/xVsI3WjlC
lpc_rms=-29.46
offset=817
sample=Soprano_staccato_PP_C5_RR4.opus
tune=-10
</region>

<region>
hivel=127
key=C5
lovel=1
lpc=yI/qQrClcMMuJg9Dc110wk5ZrkLxmxnCmr8YQiSEdsKyKQDAuCbzQGMlNEFNOrVB2CItweUlDkFLIFDBzKLOwZM9NsBN78NBAT4sQT11YEEcfGrBUuKmPyCtMMLoMRRC
lpc_rms=-25.42
offset=810
sample=Soprano_staccato_PP_C4_RR4.opus
tune=-3
</region>

<region>
hikey=C4
hivel=127
lokey=C4
lovel=1
lpc=ykNnQs9d18LCZ3tCQFwZwsBerEF0uJLBHexDQvPy/ME9ZZVB58LWvzbdIMEM6pA/UdYlwY1UL0BUVj7ADqN8QNjrrEDS8hzAanqdQIm+jMA9zolAwmLiwM55PUC60vE9
lpc_rms=-30.76
offset=3222
sample=Soprano_staccato_PP_C3_RR4.opus
tune=+5
</region>

<region>
hivel=127
key=C#6
lovel=1
lpc=ZgleQuHio8JRQhJCL2GmwXrMwUEOGFrB4+yaQYjpvMFIlmFBgWjuwAdl4EBg3q0/pW/Sv0uAmz+Iurs/DgOwPx3q6b7rspdA7AIewSN07kANnhTBQ7Z4QCvUysARf1FB
lpc_rms=-35.01
offset=882
sample=Soprano_staccato_PP_C#5_RR4.opus
tune=-9
</region>

<region>
hivel=127
key=C#5
lovel=1
lpc=/8mbQiUiHsNi0KhCMMwmwfyBIEL/PCLCm1DWQZx2AMI3pWtBbjv1wF89h0Hjn2XAfnDXwFX+gEBmTIBAziRKwZI5ekAvDQVAFWGrQEKUY7/NI0FBhZ6LwaE9NMHBT4ZB
lpc_rms=-31.66
offset=1985
sample=Soprano_staccato_PP_C#4_RR4.opus
tune=-22
</region>

<region>
hivel=127
key=C#4
lovel=1
lpc=ff1qQk+DAcPONL5C4bFQwqtJUkJD0wPC72PWQeBxBcK4G4ZBf6wNwYmabEHWHuzAPmaxwHc8QkFS4kzB0UtHQfpSwMDyJPw+xDRRQIMJbcFl1oVBM1LHwHZvhsCMY5RA
lpc_rms=-28.90
offset=6558
sample=Soprano_staccato_PP_C#3_RR4.opus
tune=-2
</region>

<region>
hivel=127
key=B5
lovel=1
lpc=2833QTUUM8Lv6xxCeHW9wcKBakHk9TrBiXVAQbuNNcH1PCVBygenwE7EaD87vAzAnE4mQRZ2V8EMjghBU3ikv10COz+l6SzAyh2WQAOAjMCsq3BA1SR1v+g/H0CRYzLB
lpc_rms=-32.82
offset=2114
sample=Soprano_staccato_PP_B4_RR4.opus
tune=-11
</region>

<region>
hivel=127
key=B4
lovel=1
lpc=mULUQbznacI/xjxC8q/EwZawbUFmHNLArO0/QYM9osFPgINB2ucMwXLKO8DzcUZBmofmwAcAvL9Is7NAO+mswAbvsL/LAuhAWZ6bwEUxlD+ZuTVAXL6SwB/+f79f/k9A
lpc_rms=-36.05
offset=5224
sample=Soprano_staccato_PP_B3_RR4.opus
tune=-16
</region>

<region>
hivel=127
key=B3
lovel=1
lpc=7nZRQnAVvsJV6HJCUWtSwskaE0L+S8DAzRjBQV05s8FhPx5BC7hTwZMJikDnBJk+5JgIwHLY3j8ula0+lpNnP9Fkr0DP29jArkg3QRjCQMG5QTBAMYT6vjS4EMHTNRVB
lpc_rms=-28.54
offset=5916
sample=Soprano_staccato_PP_B2_RR4.opus
tune=-15
</region>

<region>
hivel=127
key=A5
lovel=1
lpc=kUVkQlzlpMKJ6jBCs+73wY0YFkI5Ha7BetSzQdFGwsHGjoFBixsOwbmHSkCyqrM/l0IQvu6anEAXtE9AkSIswQNMC0E+s9TAKYbxQJ6U0MADQApBFC1dvo7Y8EAUtl7B
lpc_rms=-34.71
offset=3451
sample=Soprano_staccato_PP_A4_RR4.opus
tune=-4
</region>

<region>
hivel=127
key=A4
lovel=1
lpc=jc4KQjimhMK94P9BzAv6wByMbkGwxQ3BhiI9QZdResEE08RAEPGEwN60yEBHDodA52nzwOllL7rODhjAy1WAQJQ0Uj80qZc//Ax4wBW+iD+RpNU/VlABwIfuir/1qhFA
lpc_rms=-40.10
offset=7076
sample=Soprano_staccato_PP_A3_RR4.opus
tune=-1
</region>

<region>
hivel=127
key=A3
lovel=1
lpc=h4IiQkAGoMJvLGxCrWU4wq5lBELLqzPBo81eQaNEasEGbBtBSgKQwKnILMC1zQpBk+k/wbjsHEFfltjAhO8YQSZZ+sCdl3FAY72tv6mVF8AGnq8/afuBvYhpRcBF1FhA
lpc_rms=-27.97
offset=3013
sample=Soprano_staccato_PP_A2_RR4.opus
</region>

<region>
hivel=127
key=A#5
lovel=1
lpc=LgFRQgFxzsJrq9VCAFSiwrmeRULwEcLB1TPFQfFU78Hr++VBDEyUwdgtFEDQQwVBxGBxwE5Hqr9BDDhB8qyqwbflqUHAC1LBpZUKQR754cADuqFB0mUEwpZ6+kG4IZLB
lpc_rms=-29.97
offset=1187
sample=Soprano_staccato_PP_A#4_RR4.opus
tune=+19
</region>

<region>
hivel=127
key=A#4
lovel=1
lpc=T3AlQtFiv8Ivg5xCqHAZwld1nkG/C4TBSsUlQmzDMsKLwbxBrcIuwbmxNr9jNHG/ivrFQIBIfsBx+qxAdxYHP3VSD8ENhdJAqbeCPgaT77+Rq9E/TSbTv4SpNsD232ZA
lpc_rms=-31.88
offset=1444
sample=Soprano_staccato_PP_A#3_RR4.opus
tune=-10
</region>

<region>
hivel=127
key=A#3
lovel=1
lpc=Y7WgQZie/cEWlphBI7+5wZErhUEkwsPAOv8zQfnptcAadSxAAf5rwN0eEj//vb2+qRqdP24aKr8QKR1ASlgQwDp04T9uZWnALtP4Pynshb+QGo8/D0Eiv+5WC7/yzok/
lpc_rms=-38.93
sample=Soprano_staccato_PP_A#2_RR4.opus
tune=-7
</region>
</group>